# This file uses centimeters as units for non-parametric coordinates.

mtllib cursor_crosshair.mtl
v -0.060000 -0.060000 0.000000
v -0.060000 -0.060000 0.060000
v -0.360000 -0.060000 0.060000
v -0.360000 -0.060000 0.000000
v 0.060000 -0.060000 0.000000
v 0.360000 -0.060000 0.000000
v 0.360000 -0.060000 0.060000
v 0.060000 -0.060000 0.060000
v 0.060000 0.060000 -0.000000
v 0.060000 0.060000 0.060000
v 0.360000 0.060000 0.060000
v 0.360000 0.060000 -0.000000
v -0.060000 0.060000 -0.000000
v -0.360000 0.060000 -0.000000
v -0.360000 0.060000 0.060000
v -0.060000 0.060000 0.060000
v 0.060000 0.360000 -0.000000
v -0.060000 0.360000 -0.000000
v -0.060000 0.360000 0.060000
v 0.060000 0.360000 0.060000
v -0.060000 -0.360000 0.000000
v 0.060000 -0.360000 0.000000
v 0.060000 -0.360000 0.060000
v -0.060000 -0.360000 0.060000
vt 0.799680 0.003319
vt 0.851871 0.003319
vt 0.799680 0.264273
vt 0.851871 0.264273
vt 0.743625 0.264273
vt 0.743625 0.003319
vt 0.795816 0.264273
vt 0.795816 0.003319
vt 0.907927 0.262947
vt 0.855736 0.262947
vt 0.907927 0.001992
vt 0.855736 0.001992
vt 0.795816 0.532648
vt 0.795816 0.793603
vt 0.743625 0.532648
vt 0.743625 0.793603
vt 0.851871 0.536194
vt 0.851871 0.640576
vt 0.799680 0.536194
vt 0.799680 0.640576
vt 0.367160 0.367503
vt 0.367160 0.628458
vt 0.262778 0.367503
vt 0.262778 0.628458
vt 0.262778 0.263121
vt 0.001823 0.263121
vt 0.367160 0.263121
vt 0.001823 0.367503
vt 0.628115 0.367503
vt 0.262778 0.002166
vt 0.628115 0.263121
vt 0.367160 0.002166
vt 0.749230 0.527733
vt 0.749230 0.266778
vt 0.801421 0.527733
vt 0.801421 0.266778
vt 0.373020 0.632671
vt 0.373020 0.371717
vt 0.477402 0.632671
vt 0.477402 0.371717
vt 0.373020 0.737053
vt 0.477402 0.737053
vt 0.112065 0.737053
vt 0.738357 0.632671
vt 0.477402 0.998008
vt 0.112065 0.632671
vt 0.738357 0.737053
vt 0.373020 0.998008
vt 0.857477 0.270515
vt 0.857477 0.531470
vt 0.805286 0.270515
vt 0.805286 0.531470
vt 0.855736 0.641903
vt 0.855736 0.537521
vt 0.907927 0.641903
vt 0.907927 0.537521
vt 0.861342 0.531470
vt 0.861342 0.270515
vt 0.913533 0.531470
vt 0.913533 0.270515
vt 0.054014 0.375152
vt 0.054014 0.636106
vt 0.001823 0.375152
vt 0.001823 0.636106
vt 0.001823 0.746539
vt 0.001823 0.642157
vt 0.054014 0.746539
vt 0.054014 0.642157
vt 0.853868 0.752145
vt 0.853868 0.647763
vt 0.906059 0.752145
vt 0.906059 0.647763
vn 0.000000 -1.000000 0.000000
vn 0.000000 -1.000000 0.000000
vn 0.000000 -1.000000 0.000000
vn 0.000000 -1.000000 0.000000
vn 0.000000 -1.000000 0.000000
vn 0.000000 -1.000000 0.000000
vn 0.000000 -1.000000 0.000000
vn 0.000000 -1.000000 0.000000
vn 0.000000 1.000000 -0.000000
vn 0.000000 1.000000 -0.000000
vn 0.000000 1.000000 -0.000000
vn 0.000000 1.000000 -0.000000
vn 0.000000 1.000000 -0.000000
vn 0.000000 1.000000 -0.000000
vn 0.000000 1.000000 -0.000000
vn 0.000000 1.000000 -0.000000
vn 0.000000 1.000000 -0.000000
vn 0.000000 1.000000 -0.000000
vn 0.000000 1.000000 -0.000000
vn 0.000000 1.000000 -0.000000
vn 0.000000 0.000000 1.000000
vn 0.000000 0.000000 1.000000
vn 0.000000 0.000000 1.000000
vn 0.000000 0.000000 1.000000
vn 1.000000 0.000000 0.000000
vn 1.000000 0.000000 0.000000
vn 1.000000 0.000000 0.000000
vn 1.000000 0.000000 0.000000
vn 0.000000 -0.000000 -1.000000
vn 0.000000 -0.000000 -1.000000
vn 0.000000 -0.000000 -1.000000
vn 0.000000 -0.000000 -1.000000
vn -1.000000 0.000000 0.000000
vn -1.000000 0.000000 0.000000
vn -1.000000 0.000000 0.000000
vn -1.000000 0.000000 -0.000000
vn 0.000000 -1.000000 0.000000
vn 0.000000 -1.000000 0.000000
vn 0.000000 -1.000000 0.000000
vn 0.000000 -1.000000 0.000000
vn 0.000000 -0.000000 -1.000000
vn 0.000000 -0.000000 -1.000000
vn 0.000000 -0.000000 -1.000000
vn 0.000000 -0.000000 -1.000000
vn -1.000000 0.000000 -0.000000
vn -1.000000 -0.000000 -0.000000
vn -1.000000 -0.000000 -0.000000
vn -1.000000 -0.000000 0.000000
vn 0.000000 0.000000 1.000000
vn 0.000000 0.000000 1.000000
vn 0.000000 0.000000 1.000000
vn 0.000000 0.000000 1.000000
vn 1.000000 0.000000 0.000000
vn 1.000000 0.000000 0.000000
vn 1.000000 0.000000 0.000000
vn 1.000000 0.000000 0.000000
vn -1.000000 0.000000 0.000000
vn -1.000000 0.000000 0.000000
vn -1.000000 0.000000 0.000000
vn -1.000000 0.000000 0.000000
vn 1.000000 0.000000 0.000000
vn 1.000000 0.000000 0.000000
vn 1.000000 0.000000 0.000000
vn 1.000000 0.000000 0.000000
vn 0.000000 -0.000000 -1.000000
vn 0.000000 -0.000000 -1.000000
vn 0.000000 -0.000000 -1.000000
vn 0.000000 -0.000000 -1.000000
vn 0.000000 -0.000000 -1.000000
vn 0.000000 -0.000000 -1.000000
vn 0.000000 -0.000000 -1.000000
vn 0.000000 -0.000000 -1.000000
vn 0.000000 0.000000 1.000000
vn 0.000000 0.000000 1.000000
vn 0.000000 0.000000 1.000000
vn 0.000000 0.000000 1.000000
vn 0.000000 0.000000 1.000000
vn 0.000000 0.000000 1.000000
vn 0.000000 0.000000 1.000000
vn 0.000000 0.000000 1.000000
s 1
g textureBakeSet4 polySurface1
usemtl baked_baked_lambert6SG_polySurface1SG_polySurface1SG
f 1/1/1 2/2/2 4/3/3
f 4/3/3 2/2/2 3/4/4
s 2
f 5/5/5 6/6/6 8/7/7
f 8/7/7 6/6/6 7/8/8
s 3
f 9/9/9 10/10/10 12/11/11
f 12/11/11 10/10/10 11/12/12
s 4
f 13/13/13 14/14/14 16/15/15
f 16/15/15 14/14/14 15/16/16
s 5
f 17/17/17 18/18/18 20/19/19
f 20/19/19 18/18/18 19/20/20
s 6
f 10/21/21 20/22/22 16/23/23
f 16/23/23 20/22/22 19/24/24
s 7
f 9/33/25 17/34/26 10/35/27
f 10/35/27 17/34/26 20/36/28
s 8
f 13/37/29 18/38/30 9/39/31
f 9/39/31 18/38/30 17/40/32
s 9
f 16/49/33 19/50/34 13/51/35
f 13/51/35 19/50/34 18/52/36
s 10
f 21/53/37 22/54/38 24/55/39
f 24/55/39 22/54/38 23/56/40
s 11
f 5/42/41 22/45/42 1/41/43
f 1/41/43 22/45/42 21/48/44
s 12
f 1/57/45 21/58/46 2/59/47
f 2/59/47 21/58/46 24/60/48
s 13
f 2/25/49 24/30/50 8/27/51
f 8/27/51 24/30/50 23/32/52
s 14
f 8/61/53 23/62/54 5/63/55
f 5/63/55 23/62/54 22/64/56
s 15
f 14/65/57 4/66/58 15/67/59
f 15/67/59 4/66/58 3/68/60
s 16
f 6/69/61 12/70/62 7/71/63
f 7/71/63 12/70/62 11/72/64
s 17
f 14/46/65 13/37/66 4/43/67
f 4/43/67 13/37/66 1/41/68
f 13/37/66 9/39/69 1/41/68
f 1/41/68 9/39/69 5/42/70
f 9/39/69 12/44/71 5/42/70
f 12/44/71 6/47/72 5/42/70
s 18
f 7/31/73 11/29/74 8/27/75
f 11/29/74 10/21/76 8/27/75
f 8/27/75 10/21/76 2/25/77
f 10/21/76 16/23/78 2/25/77
f 2/25/77 16/23/78 3/26/79
f 16/23/78 15/28/80 3/26/79
