# This file uses centimeters as units for non-parametric coordinates.

v 0.850000 0.000000 -0.025000
v 0.808398 0.262664 -0.025000
v 0.687665 0.499618 -0.025000
v 0.499618 0.687665 -0.025000
v 0.262664 0.808398 -0.025000
v 0.000000 0.850000 -0.025000
v -0.262665 0.808398 -0.025000
v -0.499618 0.687665 -0.025000
v -0.687665 0.499618 -0.025000
v -0.808398 0.262665 -0.025000
v -0.850000 0.000000 -0.025000
v -0.808398 -0.262665 -0.025000
v -0.687665 -0.499618 -0.025000
v -0.499618 -0.687665 -0.025000
v -0.262665 -0.808398 -0.025000
v -0.000000 -0.850000 -0.025000
v 0.262665 -0.808398 -0.025000
v 0.499618 -0.687665 -0.025000
v 0.687665 -0.499618 -0.025000
v 0.808398 -0.262665 -0.025000
v 0.850000 0.000000 0.025000
v 0.808398 0.262664 0.025000
v 0.687665 0.499618 0.025000
v 0.499618 0.687665 0.025000
v 0.262664 0.808398 0.025000
v 0.000000 0.850000 0.025000
v -0.262665 0.808398 0.025000
v -0.499618 0.687665 0.025000
v -0.687665 0.499618 0.025000
v -0.808398 0.262665 0.025000
v -0.850000 0.000000 0.025000
v -0.808398 -0.262665 0.025000
v -0.687665 -0.499618 0.025000
v -0.499618 -0.687665 0.025000
v -0.262665 -0.808398 0.025000
v -0.000000 -0.850000 0.025000
v 0.262665 -0.808398 0.025000
v 0.499618 -0.687665 0.025000
v 0.687665 -0.499618 0.025000
v 0.808398 -0.262665 0.025000
v 1.000000 0.000000 0.025000
v 0.951057 0.309017 0.025000
v 0.809017 0.587785 0.025000
v 0.587785 0.809017 0.025000
v 0.309017 0.951057 0.025000
v -0.000000 1.000000 0.025000
v -0.309017 0.951057 0.025000
v -0.587785 0.809017 0.025000
v -0.809017 0.587785 0.025000
v -0.951057 0.309017 0.025000
v -1.000000 0.000000 0.025000
v -0.951057 -0.309017 0.025000
v -0.809017 -0.587785 0.025000
v -0.587785 -0.809017 0.025000
v -0.309017 -0.951057 0.025000
v 0.000000 -1.000000 0.025000
v 0.309017 -0.951057 0.025000
v 0.587786 -0.809017 0.025000
v 0.809018 -0.587786 0.025000
v 0.951057 -0.309017 0.025000
v 1.000000 0.000000 -0.025000
v 0.951057 0.309017 -0.025000
v 0.809017 0.587785 -0.025000
v 0.587785 0.809017 -0.025000
v 0.309017 0.951057 -0.025000
v -0.000000 1.000000 -0.025000
v -0.309017 0.951057 -0.025000
v -0.587785 0.809017 -0.025000
v -0.809017 0.587785 -0.025000
v -0.951057 0.309017 -0.025000
v -1.000000 0.000000 -0.025000
v -0.951057 -0.309017 -0.025000
v -0.809017 -0.587785 -0.025000
v -0.587785 -0.809017 -0.025000
v -0.309017 -0.951057 -0.025000
v 0.000000 -1.000000 -0.025000
v 0.309017 -0.951057 -0.025000
v 0.587786 -0.809017 -0.025000
v 0.809018 -0.587786 -0.025000
v 0.951057 -0.309017 -0.025000
vt 0.050000 1.000000
vt 0.100000 1.000000
vt 0.150000 1.000000
vt 0.200000 1.000000
vt 0.250000 1.000000
vt 0.300000 1.000000
vt 0.350000 1.000000
vt 0.400000 1.000000
vt 0.450000 1.000000
vt 0.500000 1.000000
vt 0.550000 1.000000
vt 0.600000 1.000000
vt 0.650000 1.000000
vt 0.700000 1.000000
vt 0.750000 1.000000
vt 0.800000 1.000000
vt 0.850000 1.000000
vt 0.900000 1.000000
vt 0.950000 1.000000
vt 1.000000 1.000000
vt 0.050000 0.750000
vt 0.100000 0.750000
vt 0.150000 0.750000
vt 0.200000 0.750000
vt 0.250000 0.750000
vt 0.300000 0.750000
vt 0.350000 0.750000
vt 0.400000 0.750000
vt 0.450000 0.750000
vt 0.500000 0.750000
vt 0.550000 0.750000
vt 0.600000 0.750000
vt 0.650000 0.750000
vt 0.700000 0.750000
vt 0.750000 0.750000
vt 0.800000 0.750000
vt 0.850000 0.750000
vt 0.900000 0.750000
vt 0.950000 0.750000
vt 1.000000 0.750000
vt 0.050000 0.500000
vt 0.100000 0.500000
vt 0.150000 0.500000
vt 0.200000 0.500000
vt 0.250000 0.500000
vt 0.300000 0.500000
vt 0.350000 0.500000
vt 0.400000 0.500000
vt 0.450000 0.500000
vt 0.500000 0.500000
vt 0.550000 0.500000
vt 0.600000 0.500000
vt 0.650000 0.500000
vt 0.700000 0.500000
vt 0.750000 0.500000
vt 0.800000 0.500000
vt 0.850000 0.500000
vt 0.900000 0.500000
vt 0.950000 0.500000
vt 1.000000 0.500000
vt 0.050000 0.250000
vt 0.100000 0.250000
vt 0.150000 0.250000
vt 0.200000 0.250000
vt 0.250000 0.250000
vt 0.300000 0.250000
vt 0.350000 0.250000
vt 0.400000 0.250000
vt 0.450000 0.250000
vt 0.500000 0.250000
vt 0.550000 0.250000
vt 0.600000 0.250000
vt 0.650000 0.250000
vt 0.700000 0.250000
vt 0.750000 0.250000
vt 0.800000 0.250000
vt 0.850000 0.250000
vt 0.900000 0.250000
vt 0.950000 0.250000
vt 1.000000 0.250000
vt 0.050000 0.000000
vt 0.100000 0.000000
vt 0.150000 0.000000
vt 0.200000 0.000000
vt 0.250000 0.000000
vt 0.300000 0.000000
vt 0.350000 0.000000
vt 0.400000 0.000000
vt 0.450000 0.000000
vt 0.500000 0.000000
vt 0.550000 0.000000
vt 0.600000 0.000000
vt 0.650000 0.000000
vt 0.700000 0.000000
vt 0.750000 0.000000
vt 0.800000 0.000000
vt 0.850000 0.000000
vt 0.900000 0.000000
vt 0.950000 0.000000
vt 1.000000 0.000000
vn -0.891007 -0.453990 0.000000
vn -0.891007 -0.453990 0.000000
vn -0.891007 -0.453990 0.000000
vn -0.891007 -0.453990 0.000000
vn -0.453991 -0.891006 0.000000
vn -0.453991 -0.891006 0.000000
vn -0.453991 -0.891006 0.000000
vn -0.453991 -0.891006 0.000000
vn 0.156434 -0.987688 0.000000
vn 0.156434 -0.987688 0.000000
vn 0.156434 -0.987688 0.000000
vn 0.156435 -0.987688 0.000000
vn 0.707107 -0.707107 0.000000
vn 0.707107 -0.707107 0.000000
vn 0.707107 -0.707107 0.000000
vn 0.707107 -0.707107 0.000000
vn 0.987688 -0.156435 0.000000
vn 0.987688 -0.156435 0.000000
vn 0.987688 -0.156435 0.000000
vn 0.987688 -0.156435 0.000000
vn 0.891007 0.453990 -0.000000
vn 0.891007 0.453990 -0.000000
vn 0.891007 0.453990 -0.000000
vn 0.891007 0.453990 -0.000000
vn 0.453990 0.891007 -0.000000
vn 0.453990 0.891007 -0.000000
vn 0.453990 0.891007 -0.000000
vn 0.453991 0.891006 -0.000000
vn -0.156435 0.987688 -0.000000
vn -0.156434 0.987688 -0.000000
vn -0.156434 0.987688 -0.000000
vn -0.156434 0.987688 -0.000000
vn -0.707107 0.707107 -0.000000
vn -0.707107 0.707107 -0.000000
vn -0.707107 0.707107 -0.000000
vn -0.707107 0.707107 -0.000000
vn -0.987689 0.156433 0.000000
vn -0.987689 0.156433 0.000000
vn -0.987689 0.156433 0.000000
vn -0.987689 0.156433 -0.000000
vn 0.000000 0.000000 1.000000
vn 0.000000 0.000000 1.000000
vn 0.000000 0.000000 1.000000
vn 0.000000 0.000000 1.000000
vn 0.000000 -0.000000 1.000000
vn 0.000000 -0.000000 1.000000
vn 0.000000 -0.000000 1.000000
vn 0.000000 0.000000 1.000000
vn 0.000000 0.000000 1.000000
vn 0.000000 -0.000000 1.000000
vn 0.000000 -0.000000 1.000000
vn 0.000000 -0.000000 1.000000
vn 0.000000 -0.000000 1.000000
vn 0.000000 -0.000000 1.000000
vn 0.000000 -0.000000 1.000000
vn 0.000000 0.000000 1.000000
vn 0.000000 -0.000000 1.000000
vn 0.000000 -0.000000 1.000000
vn 0.000000 -0.000000 1.000000
vn 0.000000 0.000000 1.000000
vn 0.000000 0.000000 1.000000
vn 0.000000 -0.000000 1.000000
vn 0.000000 -0.000000 1.000000
vn 0.000000 -0.000000 1.000000
vn 0.000000 0.000000 1.000000
vn 0.000000 0.000000 1.000000
vn 0.000000 0.000000 1.000000
vn 0.000000 0.000000 1.000000
vn 0.000000 0.000000 1.000000
vn 0.000000 0.000000 1.000000
vn 0.000000 0.000000 1.000000
vn 0.000000 0.000000 1.000000
vn 0.000000 -0.000000 1.000000
vn 0.000000 -0.000000 1.000000
vn 0.000000 -0.000000 1.000000
vn 0.000000 -0.000000 1.000000
vn 0.000000 -0.000000 1.000000
vn 0.000000 -0.000000 1.000000
vn 0.000000 -0.000000 1.000000
vn 0.000000 0.000000 1.000000
vn 0.891007 0.453990 -0.000000
vn 0.891007 0.453990 -0.000000
vn 0.891007 0.453990 -0.000000
vn 0.891007 0.453990 -0.000000
vn 0.453990 0.891007 -0.000000
vn 0.453991 0.891007 -0.000000
vn 0.453991 0.891007 -0.000000
vn 0.453991 0.891006 -0.000000
vn -0.156434 0.987688 -0.000000
vn -0.156434 0.987688 -0.000000
vn -0.156434 0.987688 -0.000000
vn -0.156435 0.987688 -0.000000
vn -0.707107 0.707107 -0.000000
vn -0.707107 0.707107 -0.000000
vn -0.707107 0.707107 -0.000000
vn -0.707107 0.707107 -0.000000
vn -0.987688 0.156434 0.000000
vn -0.987688 0.156434 0.000000
vn -0.987688 0.156434 0.000000
vn -0.987688 0.156434 -0.000000
vn -0.891007 -0.453990 0.000000
vn -0.891007 -0.453990 0.000000
vn -0.891007 -0.453990 0.000000
vn -0.891007 -0.453990 0.000000
vn -0.453991 -0.891006 0.000000
vn -0.453991 -0.891006 0.000000
vn -0.453991 -0.891006 0.000000
vn -0.453991 -0.891006 0.000000
vn 0.156434 -0.987688 0.000000
vn 0.156434 -0.987688 0.000000
vn 0.156434 -0.987688 0.000000
vn 0.156434 -0.987688 0.000000
vn 0.707107 -0.707107 0.000000
vn 0.707107 -0.707107 0.000000
vn 0.707107 -0.707107 0.000000
vn 0.707107 -0.707107 0.000000
vn 0.987689 -0.156432 -0.000000
vn 0.987689 -0.156432 -0.000000
vn 0.987689 -0.156432 -0.000000
vn 0.987689 -0.156432 0.000000
vn 0.000000 -0.000000 -1.000000
vn 0.000000 -0.000000 -1.000000
vn 0.000000 -0.000000 -1.000000
vn 0.000000 -0.000000 -1.000000
vn 0.000000 0.000000 -1.000000
vn 0.000000 0.000000 -1.000000
vn 0.000000 0.000000 -1.000000
vn 0.000000 -0.000000 -1.000000
vn 0.000000 -0.000000 -1.000000
vn 0.000000 -0.000000 -1.000000
vn 0.000000 -0.000000 -1.000000
vn 0.000000 -0.000000 -1.000000
vn 0.000000 -0.000000 -1.000000
vn 0.000000 -0.000000 -1.000000
vn 0.000000 -0.000000 -1.000000
vn 0.000000 -0.000000 -1.000000
vn 0.000000 -0.000000 -1.000000
vn 0.000000 0.000000 -1.000000
vn 0.000000 0.000000 -1.000000
vn 0.000000 0.000000 -1.000000
vn 0.000000 -0.000000 -1.000000
vn 0.000000 -0.000000 -1.000000
vn 0.000000 -0.000000 -1.000000
vn 0.000000 -0.000000 -1.000000
vn 0.000000 -0.000000 -1.000000
vn 0.000000 0.000000 -1.000000
vn 0.000000 0.000000 -1.000000
vn 0.000000 0.000000 -1.000000
vn 0.000000 -0.000000 -1.000000
vn 0.000000 0.000000 -1.000000
vn 0.000000 0.000000 -1.000000
vn 0.000000 0.000000 -1.000000
vn 0.000000 -0.000000 -1.000000
vn 0.000000 -0.000000 -1.000000
vn 0.000000 -0.000000 -1.000000
vn 0.000000 -0.000000 -1.000000
vn 0.000000 -0.000000 -1.000000
vn 0.000000 -0.000000 -1.000000
vn 0.000000 -0.000000 -1.000000
vn 0.000000 -0.000000 -1.000000
vn 0.000000 1.000000 0.000000
vn 0.000000 1.000000 0.000000
vn 0.000000 1.000000 0.000000
vn 0.000000 1.000000 0.000000
vn 0.309017 -0.951056 0.000000
vn 0.309017 -0.951057 0.000000
vn 0.309017 -0.951057 0.000000
vn 0.309017 -0.951057 0.000000
vn -0.587785 0.809017 -0.000000
vn -0.587785 0.809017 -0.000000
vn -0.587785 0.809017 -0.000000
vn -0.587785 0.809017 -0.000000
vn 0.809017 -0.587785 0.000000
vn 0.809017 -0.587785 0.000000
vn 0.809017 -0.587785 0.000000
vn 0.809017 -0.587785 0.000000
vn -0.951057 0.309017 -0.000000
vn -0.951057 0.309017 -0.000000
vn -0.951057 0.309017 -0.000000
vn -0.951057 0.309017 -0.000000
vn 1.000000 0.000000 -0.000000
vn 1.000000 0.000000 -0.000000
vn 1.000000 0.000000 -0.000000
vn 1.000000 0.000000 -0.000000
vn -0.951057 -0.309017 0.000000
vn -0.951057 -0.309017 0.000000
vn -0.951057 -0.309017 0.000000
vn -0.951057 -0.309017 0.000000
vn 0.809017 0.587786 -0.000000
vn 0.809017 0.587785 -0.000000
vn 0.809017 0.587785 -0.000000
vn 0.809017 0.587785 -0.000000
vn -0.587785 -0.809017 0.000000
vn -0.587785 -0.809017 0.000000
vn -0.587785 -0.809017 0.000000
vn -0.587785 -0.809017 0.000000
vn 0.309017 0.951057 -0.000000
vn 0.309017 0.951057 -0.000000
vn 0.309017 0.951057 -0.000000
vn 0.309017 0.951057 -0.000000
vn 0.000000 -1.000000 0.000000
vn 0.000000 -1.000000 0.000000
vn 0.000000 -1.000000 0.000000
vn 0.000000 -1.000000 0.000000
vn -0.309017 0.951057 -0.000000
vn -0.309017 0.951057 -0.000000
vn -0.309017 0.951057 -0.000000
vn -0.309017 0.951057 -0.000000
vn 0.587785 -0.809017 0.000000
vn 0.587785 -0.809017 0.000000
vn 0.587785 -0.809017 0.000000
vn 0.587785 -0.809017 0.000000
vn -0.809017 0.587785 -0.000000
vn -0.809017 0.587785 -0.000000
vn -0.809017 0.587785 -0.000000
vn -0.809017 0.587785 -0.000000
vn 0.951057 -0.309017 0.000000
vn 0.951057 -0.309017 0.000000
vn 0.951057 -0.309017 0.000000
vn 0.951057 -0.309017 0.000000
vn -1.000000 -0.000000 0.000000
vn -1.000000 -0.000000 0.000000
vn -1.000000 -0.000000 0.000000
vn -1.000000 -0.000000 0.000000
vn 0.951057 0.309017 -0.000000
vn 0.951056 0.309017 -0.000000
vn 0.951056 0.309017 -0.000000
vn 0.951056 0.309017 -0.000000
vn -0.809017 -0.587785 0.000000
vn -0.809017 -0.587785 0.000000
vn -0.809017 -0.587785 0.000000
vn -0.809017 -0.587785 0.000000
vn 0.587785 0.809017 -0.000000
vn 0.587785 0.809017 -0.000000
vn 0.587785 0.809017 -0.000000
vn 0.587785 0.809017 -0.000000
vn -0.309017 -0.951057 0.000000
vn -0.309017 -0.951057 0.000000
vn -0.309017 -0.951057 0.000000
vn -0.309017 -0.951057 0.000000
s 1
f 3/2/1 2/1/2 23/22/3
f 23/22/3 2/1/2 22/21/4
s 2
f 5/4/5 4/3/6 25/24/7
f 25/24/7 4/3/6 24/23/8
s 3
f 7/6/9 6/5/10 27/26/11
f 27/26/11 6/5/10 26/25/12
s 4
f 9/8/13 8/7/14 29/28/15
f 29/28/15 8/7/14 28/27/16
s 5
f 11/10/17 10/9/18 31/30/19
f 31/30/19 10/9/18 30/29/20
s 6
f 13/12/21 12/11/22 33/32/23
f 33/32/23 12/11/22 32/31/24
s 7
f 15/14/25 14/13/26 35/34/27
f 35/34/27 14/13/26 34/33/28
s 8
f 17/16/29 16/15/30 37/36/31
f 37/36/31 16/15/30 36/35/32
s 9
f 19/18/33 18/17/34 39/38/35
f 39/38/35 18/17/34 38/37/36
s 10
f 1/20/37 20/19/38 21/40/39
f 21/40/39 20/19/38 40/39/40
s 11
f 23/22/41 22/21/42 43/42/43
f 43/42/43 22/21/42 42/41/44
s 12
f 25/24/45 24/23/46 45/44/47
f 45/44/47 24/23/46 44/43/48
s 13
f 27/26/49 26/25/50 47/46/51
f 47/46/51 26/25/50 46/45/52
s 14
f 29/28/53 28/27/54 49/48/55
f 49/48/55 28/27/54 48/47/56
s 15
f 31/30/57 30/29/58 51/50/59
f 51/50/59 30/29/58 50/49/60
s 16
f 33/32/61 32/31/62 53/52/63
f 53/52/63 32/31/62 52/51/64
s 17
f 35/34/65 34/33/66 55/54/67
f 55/54/67 34/33/66 54/53/68
s 18
f 37/36/69 36/35/70 57/56/71
f 57/56/71 36/35/70 56/55/72
s 19
f 39/38/73 38/37/74 59/58/75
f 59/58/75 38/37/74 58/57/76
s 20
f 21/40/77 40/39/78 41/60/79
f 41/60/79 40/39/78 60/59/80
s 21
f 43/42/81 42/41/82 63/62/83
f 63/62/83 42/41/82 62/61/84
s 22
f 45/44/85 44/43/86 65/64/87
f 65/64/87 44/43/86 64/63/88
s 23
f 47/46/89 46/45/90 67/66/91
f 67/66/91 46/45/90 66/65/92
s 24
f 49/48/93 48/47/94 69/68/95
f 69/68/95 48/47/94 68/67/96
s 25
f 51/50/97 50/49/98 71/70/99
f 71/70/99 50/49/98 70/69/100
s 26
f 53/52/101 52/51/102 73/72/103
f 73/72/103 52/51/102 72/71/104
s 27
f 55/54/105 54/53/106 75/74/107
f 75/74/107 54/53/106 74/73/108
s 28
f 57/56/109 56/55/110 77/76/111
f 77/76/111 56/55/110 76/75/112
s 29
f 59/58/113 58/57/114 79/78/115
f 79/78/115 58/57/114 78/77/116
s 30
f 41/60/117 60/59/118 61/80/119
f 61/80/119 60/59/118 80/79/120
s 31
f 63/62/121 62/61/122 3/82/123
f 3/82/123 62/61/122 2/81/124
s 32
f 65/64/125 64/63/126 5/84/127
f 5/84/127 64/63/126 4/83/128
s 33
f 67/66/129 66/65/130 7/86/131
f 7/86/131 66/65/130 6/85/132
s 34
f 69/68/133 68/67/134 9/88/135
f 9/88/135 68/67/134 8/87/136
s 35
f 71/70/137 70/69/138 11/90/139
f 11/90/139 70/69/138 10/89/140
s 36
f 73/72/141 72/71/142 13/92/143
f 13/92/143 72/71/142 12/91/144
s 37
f 75/74/145 74/73/146 15/94/147
f 15/94/147 74/73/146 14/93/148
s 38
f 77/76/149 76/75/150 17/96/151
f 17/96/151 76/75/150 16/95/152
s 39
f 79/78/153 78/77/154 19/98/155
f 19/98/155 78/77/154 18/97/156
s 40
f 61/80/157 80/79/158 1/100/159
f 1/100/159 80/79/158 20/99/160
s 41
f 21/40/161 41/60/162 1/20/163
f 1/20/163 41/60/162 61/80/164
s 42
f 22/21/165 2/81/166 42/41/167
f 42/41/167 2/81/166 62/61/168
s 43
f 23/22/169 43/42/170 3/2/171
f 3/2/171 43/42/170 63/62/172
s 44
f 24/23/173 4/83/174 44/43/175
f 44/43/175 4/83/174 64/63/176
s 45
f 25/24/177 45/44/178 5/4/179
f 5/4/179 45/44/178 65/64/180
s 46
f 26/25/181 6/85/182 46/45/183
f 46/45/183 6/85/182 66/65/184
s 47
f 27/26/185 47/46/186 7/6/187
f 7/6/187 47/46/186 67/66/188
s 48
f 28/27/189 8/87/190 48/47/191
f 48/47/191 8/87/190 68/67/192
s 49
f 29/28/193 49/48/194 9/8/195
f 9/8/195 49/48/194 69/68/196
s 50
f 30/29/197 10/89/198 50/49/199
f 50/49/199 10/89/198 70/69/200
s 51
f 31/30/201 51/50/202 11/10/203
f 11/10/203 51/50/202 71/70/204
s 52
f 32/31/205 12/91/206 52/51/207
f 52/51/207 12/91/206 72/71/208
s 53
f 33/32/209 53/52/210 13/12/211
f 13/12/211 53/52/210 73/72/212
s 54
f 34/33/213 14/93/214 54/53/215
f 54/53/215 14/93/214 74/73/216
s 55
f 35/34/217 55/54/218 15/14/219
f 15/14/219 55/54/218 75/74/220
s 56
f 36/35/221 16/95/222 56/55/223
f 56/55/223 16/95/222 76/75/224
s 57
f 37/36/225 57/56/226 17/16/227
f 17/16/227 57/56/226 77/76/228
s 58
f 38/37/229 18/97/230 58/57/231
f 58/57/231 18/97/230 78/77/232
s 59
f 39/38/233 59/58/234 19/18/235
f 19/18/235 59/58/234 79/78/236
s 60
f 40/39/237 20/99/238 60/59/239
f 60/59/239 20/99/238 80/79/240
