{"accessors":{"Mesh_1042_Normals":{"bufferView":"Mesh_1042_Normals_Buffer","byteOffset":0,"byteStride":12,"componentType":5126,"count":1487,"max":[0.9999774694442749,0.99968189001083374,0.99999493360519409],"min":[-0.9999774694442749,-0.99984967708587646,-0.99994552135467529],"name":"Mesh_1042_Normals","type":"VEC3"},"Mesh_1042_Polygons":{"bufferView":"Mesh_1042_Polygons_Buffer","byteOffset":0,"byteStride":2,"componentType":5123,"count":7242,"name":"Mesh_1042_Polygons","type":"SCALAR"},"Mesh_1042_Positions":{"bufferView":"Mesh_1042_Positions_Buffer","byteOffset":0,"byteStride":12,"componentType":5126,"count":1487,"max":[21.250736236572266,180.60807800292969,18.706998825073242],"min":[-21.250736236572266,84.680770874023438,-11.109088897705078],"name":"Mesh_1042_Positions","type":"VEC3"},"Mesh_1042_TEXCOORD_0":{"bufferView":"Mesh_1042_TEXCOORD_0_Buffer","byteOffset":0,"byteStride":8,"componentType":5126,"count":1487,"max":[0.98604774475097656,0.9715912938117981],"min":[0.017612218856811523,0.0095686912536621094],"name":"Mesh_1042_TEXCOORD_0","type":"VEC2"},"Mesh_1061_Normals":{"bufferView":"Mesh_1061_Normals_Buffer","byteOffset":0,"byteStride":12,"componentType":5126,"count":10590,"max":[1,1,1],"min":[-1,-1,-1],"name":"Mesh_1061_Normals","type":"VEC3"},"Mesh_1061_Polygons":{"bufferView":"Mesh_1061_Polygons_Buffer","byteOffset":0,"byteStride":2,"componentType":5123,"count":29766,"name":"Mesh_1061_Polygons","type":"SCALAR"},"Mesh_1061_Positions":{"bufferView":"Mesh_1061_Positions_Buffer","byteOffset":0,"byteStride":12,"componentType":5126,"count":10590,"max":[94.845451354980469,159.42143249511719,17.009210586547852],"min":[-94.845451354980469,0.7565840482711792,-8.4832296371459961],"name":"Mesh_1061_Positions","type":"VEC3"},"Mesh_1061_TEXCOORD_0":{"bufferView":"Mesh_1061_TEXCOORD_0_Buffer","byteOffset":0,"byteStride":8,"componentType":5126,"count":10590,"max":[1,1],"min":[0,0],"name":"Mesh_1061_TEXCOORD_0","type":"VEC2"},"Mesh_988_Normals":{"bufferView":"Mesh_988_Normals_Buffer","byteOffset":0,"byteStride":12,"componentType":5126,"count":11442,"max":[0.99992519617080688,0.99973803758621216,0.99978834390640259],"min":[-0.99992525577545166,-0.99974232912063599,-0.99955582618713379],"name":"Mesh_988_Normals","type":"VEC3"},"Mesh_988_Polygons":{"bufferView":"Mesh_988_Polygons_Buffer","byteOffset":0,"byteStride":2,"componentType":5123,"count":34392,"name":"Mesh_988_Polygons","type":"SCALAR"},"Mesh_988_Positions":{"bufferView":"Mesh_988_Positions_Buffer","byteOffset":0,"byteStride":12,"componentType":5126,"count":11442,"max":[96.933837890625,149.94125366210938,19.893039703369141],"min":[-96.893722534179688,-0.044212594628334045,-8.0974693298339844],"name":"Mesh_988_Positions","type":"VEC3"},"Mesh_988_TEXCOORD_0":{"bufferView":"Mesh_988_TEXCOORD_0_Buffer","byteOffset":0,"byteStride":8,"componentType":5126,"count":11442,"max":[0.990215003490448,0.9949755072593689],"min":[0.01056748628616333,0.010840773582458496],"name":"Mesh_988_TEXCOORD_0","type":"VEC2"}},"asset":{"copyright":"","generator":"FBX GLTF Exporter v1.0","premultipliedAlpha":false,"profile":{"api":"WebGL","version":"1.0.3"},"version":"1.0"},"bufferViews":{"Mesh_1042_Normals_Buffer":{"buffer":"Beta","byteLength":17844,"byteOffset":452772,"name":"Mesh_1042_Normals_Buffer","target":34962},"Mesh_1042_Polygons_Buffer":{"buffer":"Beta","byteLength":14484,"byteOffset":482512,"name":"Mesh_1042_Polygons_Buffer","target":34963},"Mesh_1042_Positions_Buffer":{"buffer":"Beta","byteLength":17844,"byteOffset":434928,"name":"Mesh_1042_Positions_Buffer","target":34962},"Mesh_1042_TEXCOORD_0_Buffer":{"buffer":"Beta","byteLength":11896,"byteOffset":470616,"name":"Mesh_1042_TEXCOORD_0_Buffer","target":34962},"Mesh_1061_Normals_Buffer":{"buffer":"Beta","byteLength":127080,"byteOffset":624076,"name":"Mesh_1061_Normals_Buffer","target":34962},"Mesh_1061_Polygons_Buffer":{"buffer":"Beta","byteLength":59532,"byteOffset":835876,"name":"Mesh_1061_Polygons_Buffer","target":34963},"Mesh_1061_Positions_Buffer":{"buffer":"Beta","byteLength":127080,"byteOffset":496996,"name":"Mesh_1061_Positions_Buffer","target":34962},"Mesh_1061_TEXCOORD_0_Buffer":{"buffer":"Beta","byteLength":84720,"byteOffset":751156,"name":"Mesh_1061_TEXCOORD_0_Buffer","target":34962},"Mesh_988_Normals_Buffer":{"buffer":"Beta","byteLength":137304,"byteOffset":137304,"name":"Mesh_988_Normals_Buffer","target":34962},"Mesh_988_Polygons_Buffer":{"buffer":"Beta","byteLength":68784,"byteOffset":366144,"name":"Mesh_988_Polygons_Buffer","target":34963},"Mesh_988_Positions_Buffer":{"buffer":"Beta","byteLength":137304,"byteOffset":0,"name":"Mesh_988_Positions_Buffer","target":34962},"Mesh_988_TEXCOORD_0_Buffer":{"buffer":"Beta","byteLength":91536,"byteOffset":274608,"name":"Mesh_988_TEXCOORD_0_Buffer","target":34962}},"buffers":{"Beta":{"byteLength":895408,"name":"Beta","type":"arraybuffer","uri":"Beta.bin"}},"images":{},"materials":{"Beta_Body_MAT":{"name":"Beta_Body_MAT","values":{"ambient":[0,0,0,1],"diffuse":[0.37182187976059922,0.75122966430138405,0.9090999960899353,1],"emission":[0,0,0,1],"reflective":[0,0,0,1],"reflectivity":0.5,"shininess":22.24799919128418,"specular":[0.28925999999046326,0.28925999999046326,0.28925999999046326,1],"transparency":1,"transparent":[0,0,0,1]}},"Beta_Joints_MAT":{"name":"Beta_Joints_MAT","values":{"ambient":[0,0,0,1],"diffuse":[0.046287999246835687,0.046287999246835687,0.046287999246835687,1],"emission":[0,0,0,1],"reflective":[0,0,0,1],"reflectivity":0.5,"shininess":20,"specular":[0.15661998093128204,0.54848146438598633,0.76399999856948853,1],"transparency":1,"transparent":[0,0,0,1]}}},"meshes":{"Mesh_1042":{"name":"Mesh_1042","primitives":[{"attributes":{"NORMAL":"Mesh_1042_Normals","POSITION":"Mesh_1042_Positions","TEXCOORD_0":"Mesh_1042_TEXCOORD_0"},"indices":"Mesh_1042_Polygons","material":"Beta_Body_MAT","mode":4}]},"Mesh_1061":{"name":"Mesh_1061","primitives":[{"attributes":{"NORMAL":"Mesh_1061_Normals","POSITION":"Mesh_1061_Positions","TEXCOORD_0":"Mesh_1061_TEXCOORD_0"},"indices":"Mesh_1061_Polygons","material":"Beta_Joints_MAT","mode":4}]},"Mesh_988":{"name":"Mesh_988","primitives":[{"attributes":{"NORMAL":"Mesh_988_Normals","POSITION":"Mesh_988_Positions","TEXCOORD_0":"Mesh_988_TEXCOORD_0"},"indices":"Mesh_988_Polygons","material":"Beta_Body_MAT","mode":4}]}},"nodes":{"Beta:HeadTop_End_109":{"children":[],"matrix":[1,-9.5172265466239882e-27,0,0,-9.5172272206994687e-27,1.0000000000000002,1.3234889800848443e-23,0,1.6155871338926322e-27,1.3234889800848443e-23,1.0000000000000002,0,5.1705601605833706e-16,23.029731785776818,0.12312889099121094,1],"name":"Beta:HeadTop_End_109"},"Beta:LeftFootToeBase_End_162":{"children":[],"matrix":[1,-6.5664902010284982e-23,-3.3087224502121107e-24,0,1.4659079043311495e-22,0.99999999999999989,0,0,-3.3087224502121107e-24,0,1.0000000000000002,0,-1.7763568394002505e-15,8.6736173798840355e-19,10.168059526745921,1],"name":"Beta:LeftFootToeBase_End_162"},"Beta:LeftHandIndex4_125":{"children":[],"matrix":[0.99999999999999989,-1.4800778652260205e-26,0,0,-1.8760825440841193e-27,1.0000000000000002,0,0,3.2311742677852644e-27,0,1.0000000000000002,0,2.5,5.6843418860808015e-14,0,1],"name":"Beta:LeftHandIndex4_125"},"Beta:LeftHandMiddle4_121":{"children":[],"matrix":[0.99999999999999989,-1.4800778555963707e-26,-1.6155871338926322e-27,0,-1.4800779711521674e-26,1.0000000000000002,0,0,3.2311742677852644e-27,0,1.0000000000000002,0,2.2999999523162984,1.1368683772161603e-13,0,1],"name":"Beta:LeftHandMiddle4_121"},"Beta:LeftHandPinky4_133":{"children":[],"matrix":[0.99999999999999989,-1.4800778652260205e-26,0,0,-1.8760825440841193e-27,1.0000000000000002,0,0,3.2311742677852644e-27,0,1.0000000000000002,0,2.9000000953674316,2.8421709430404007e-14,0,1],"name":"Beta:LeftHandPinky4_133"},"Beta:LeftHandRing4_129":{"children":[],"matrix":[0.99999999999999989,-1.4800778748556702e-26,0,0,-1.8760825440841193e-27,1.0000000000000002,0,0,1.6155871338926322e-27,0,1.0000000000000002,0,2,-2.8421709430404007e-14,-8.8817841970012523e-16,1],"name":"Beta:LeftHandRing4_129"},"Beta:LeftHandThumb4_117":{"children":[],"matrix":[0.99999999999999989,-1.4800778652260205e-26,0,0,-1.8760825440841193e-27,1.0000000000000002,0,0,3.2311742677852644e-27,0,1.0000000000000002,0,2.5999999046325826,-1.0000000000000284,1,1],"name":"Beta:LeftHandThumb4_117"},"Beta:RightFootToeBase_End_167":{"children":[],"matrix":[0.99999999999999989,1.3976233138271988e-23,8.2718061255302767e-25,0,1.2030533270631758e-22,0.99999999999999989,0,0,0,-1.5509636485369269e-25,0.99999999999999989,0,0.0031948089599591611,-1.7347234759768071e-18,10.168059526745919,1],"name":"Beta:RightFootToeBase_End_167"},"Beta:RightHandIndex4_145":{"children":[],"matrix":[0.99999999999999989,3.4074708134065609e-27,0,0,-9.5172272206994687e-27,1.0000000000000002,0,0,1.6155871338926322e-27,0,1.0000000000000002,0,-2.5999999046325684,0,4.4408920985006262e-16,1],"name":"Beta:RightHandIndex4_145"},"Beta:RightHandMiddle4_149":{"children":[],"matrix":[0.99999999999999989,-2.5265246493825844e-27,1.6155871338926322e-27,0,-2.5265257086440539e-27,1.0000000000000002,0,0,1.6155871338926322e-27,0,1.0000000000000002,0,-2.2999999523162984,5.6843418860808015e-14,-8.8817841970012523e-16,1],"name":"Beta:RightHandMiddle4_149"},"Beta:RightHandPinky4_157":{"children":[],"matrix":[0.99999999999999989,-2.5265246493825844e-27,1.6155871338926322e-27,0,-2.5265257086440539e-27,1.0000000000000002,0,0,1.6155871338926322e-27,0,1.0000000000000002,0,-2.9000000953674316,0,0,1],"name":"Beta:RightHandPinky4_157"},"Beta:RightHandRing4_153":{"children":[],"matrix":[0.99999999999999989,3.4074708134065609e-27,0,0,-9.5172272206994687e-27,1.0000000000000002,0,0,1.6155871338926322e-27,0,1.0000000000000002,0,-2.2000000476837158,-2.8421709430404007e-14,0,1],"name":"Beta:RightHandRing4_153"},"Beta:RightHandThumb4_141":{"children":[],"matrix":[0.99999999999999989,3.4074708134065609e-27,0,0,-9.5172272206994687e-27,1.0000000000000002,0,0,1.6155871338926322e-27,0,1.0000000000000002,0,-2.5999999046325541,-1,1,1],"name":"Beta:RightHandThumb4_141"},"BetaHighResMeshes_168":{"children":["Beta_HighLimbsGeo_169","Beta_HighTorsoGeo_170","Beta_HighJointsGeo_171"],"matrix":[0.01,0,0,0,0,0.01,0,0,0,0,0.01,0,0,0,0,1],"name":"BetaHighResMeshes_168"},"Beta_HighJointsGeo_171":{"children":[],"matrix":[1,0,0,0,0,1,0,0,0,0,1,0,0,0,0,1],"meshes":["Mesh_1061"],"name":"Beta_HighJointsGeo_171"},"Beta_HighLimbsGeo_169":{"children":[],"matrix":[1,0,0,0,0,1,0,0,0,0,1,0,0,0,0,1],"meshes":["Mesh_988"],"name":"Beta_HighLimbsGeo_169"},"Beta_HighTorsoGeo_170":{"children":[],"matrix":[1,0,0,0,0,1,0,0,0,0,1,0,0,0,0,1],"meshes":["Mesh_1042"],"name":"Beta_HighTorsoGeo_170"},"RootNode_10":{"children":["BetaHighResMeshes_168"],"matrix":[1,0,0,0,0,1,0,0,0,0,1,0,0,0,0,1],"name":"RootNode_10"}},"samplers":{},"scene":"Beta","scenes":{"Beta":{"nodes":["RootNode_10"]}},"techniques":{"Beta_Body_MAT_technique_0":{"attributes":{"a_normal":"normal","a_position":"position","a_texcoord0":"texcoord0"},"extras":{"doubleSided":false,"lightingModel":"Phong","texcoordBindings":{"diffuse":"TEXCOORD_0"}},"parameters":{"ambient":{"type":35666},"diffuse":{"type":35666},"emission":{"type":35666},"modelViewMatrix":{"semantic":"MODELVIEW","type":35676},"normal":{"semantic":"NORMAL","type":35665},"normalMatrix":{"semantic":"MODELVIEWINVERSETRANSPOSE","type":35675},"position":{"semantic":"POSITION","type":35665},"projectionMatrix":{"semantic":"PROJECTION","type":35676},"reflective":{"type":35666},"reflectivity":{"type":5126},"shininess":{"type":5126},"specular":{"type":35666},"texcoord0":{"semantic":"TEXCOORD_0","type":35664},"transparency":{"type":5126},"transparent":{"type":35666}},"states":{"enable":[2884,2929]},"uniforms":{"u_ambient":"ambient","u_diffuse":"diffuse","u_emission":"emission","u_modelViewMatrix":"modelViewMatrix","u_normalMatrix":"normalMatrix","u_projectionMatrix":"projectionMatrix","u_reflective":"reflective","u_reflectivity":"reflectivity","u_shininess":"shininess","u_specular":"specular","u_transparency":"transparency","u_transparent":"transparent"}},"Beta_Joints_MAT_technique_0":{"attributes":{"a_normal":"normal","a_position":"position","a_texcoord0":"texcoord0"},"extras":{"doubleSided":false,"lightingModel":"Phong","texcoordBindings":{"diffuse":"TEXCOORD_0"}},"parameters":{"ambient":{"type":35666},"diffuse":{"type":35666},"emission":{"type":35666},"modelViewMatrix":{"semantic":"MODELVIEW","type":35676},"normal":{"semantic":"NORMAL","type":35665},"normalMatrix":{"semantic":"MODELVIEWINVERSETRANSPOSE","type":35675},"position":{"semantic":"POSITION","type":35665},"projectionMatrix":{"semantic":"PROJECTION","type":35676},"reflective":{"type":35666},"reflectivity":{"type":5126},"shininess":{"type":5126},"specular":{"type":35666},"texcoord0":{"semantic":"TEXCOORD_0","type":35664},"transparency":{"type":5126},"transparent":{"type":35666}},"states":{"enable":[2884,2929]},"uniforms":{"u_ambient":"ambient","u_diffuse":"diffuse","u_emission":"emission","u_modelViewMatrix":"modelViewMatrix","u_normalMatrix":"normalMatrix","u_projectionMatrix":"projectionMatrix","u_reflective":"reflective","u_reflectivity":"reflectivity","u_shininess":"shininess","u_specular":"specular","u_transparency":"transparency","u_transparent":"transparent"}}},"textures":{}}
