# This file uses centimeters as units for non-parametric coordinates.

v 0.493845 0.000000 -0.078217
v 0.475529 0.000000 -0.154509
v 0.445504 0.000000 -0.226995
v 0.404509 0.000000 -0.293893
v 0.353554 0.000000 -0.353554
v 0.293893 0.000000 -0.404509
v 0.226995 0.000000 -0.445504
v 0.154509 0.000000 -0.475529
v 0.078217 0.000000 -0.493845
v 0.000000 0.000000 -0.500000
v -0.078217 0.000000 -0.493845
v -0.154509 0.000000 -0.475529
v -0.226995 0.000000 -0.445504
v -0.293893 0.000000 -0.404509
v -0.353554 0.000000 -0.353554
v -0.404509 0.000000 -0.293893
v -0.445504 0.000000 -0.226995
v -0.475529 0.000000 -0.154509
v -0.493845 0.000000 -0.078217
v -0.500000 0.000000 0.000000
v -0.493845 0.000000 0.078217
v -0.475529 0.000000 0.154509
v -0.445504 0.000000 0.226995
v -0.404509 0.000000 0.293893
v -0.353554 0.000000 0.353554
v -0.293893 0.000000 0.404509
v -0.226995 0.000000 0.445504
v -0.154509 0.000000 0.475529
v -0.078217 0.000000 0.493845
v 0.000000 0.000000 0.500000
v 0.078217 0.000000 0.493845
v 0.154509 0.000000 0.475529
v 0.226995 0.000000 0.445504
v 0.293893 0.000000 0.404509
v 0.353554 0.000000 0.353554
v 0.404509 0.000000 0.293893
v 0.445504 0.000000 0.226995
v 0.475529 0.000000 0.154509
v 0.493844 0.000000 0.078217
v 0.500000 0.000000 0.000000
v 0.493845 1.000000 -0.078217
v 0.475529 1.000000 -0.154509
v 0.445504 1.000000 -0.226995
v 0.404509 1.000000 -0.293893
v 0.353554 1.000000 -0.353554
v 0.293893 1.000000 -0.404509
v 0.226995 1.000000 -0.445504
v 0.154509 1.000000 -0.475529
v 0.078217 1.000000 -0.493845
v 0.000000 1.000000 -0.500000
v -0.078217 1.000000 -0.493845
v -0.154509 1.000000 -0.475529
v -0.226995 1.000000 -0.445504
v -0.293893 1.000000 -0.404509
v -0.353554 1.000000 -0.353554
v -0.404509 1.000000 -0.293893
v -0.445504 1.000000 -0.226995
v -0.475529 1.000000 -0.154509
v -0.493845 1.000000 -0.078217
v -0.500000 1.000000 0.000000
v -0.493845 1.000000 0.078217
v -0.475529 1.000000 0.154509
v -0.445504 1.000000 0.226995
v -0.404509 1.000000 0.293893
v -0.353554 1.000000 0.353554
v -0.293893 1.000000 0.404509
v -0.226995 1.000000 0.445504
v -0.154509 1.000000 0.475529
v -0.078217 1.000000 0.493845
v 0.000000 1.000000 0.500000
v 0.078217 1.000000 0.493845
v 0.154509 1.000000 0.475529
v 0.226995 1.000000 0.445504
v 0.293893 1.000000 0.404509
v 0.353554 1.000000 0.353554
v 0.404509 1.000000 0.293893
v 0.445504 1.000000 0.226995
v 0.475529 1.000000 0.154509
v 0.493844 1.000000 0.078217
v 0.500000 1.000000 0.000000
v 0.000000 0.000000 0.000000
v 0.000000 1.000000 0.000000
vt 1.050032 0.000000
vt 1.100032 0.000000
vt 1.100032 1.000000
vt 1.050032 1.000000
vt 1.150032 0.000000
vt 1.150032 1.000000
vt 1.200032 0.000000
vt 1.200032 1.000000
vt 1.250032 0.000000
vt 1.250032 1.000000
vt 1.300032 0.000000
vt 1.300032 1.000000
vt 1.350032 0.000000
vt 1.350032 1.000000
vt 1.400032 0.000000
vt 1.400032 1.000000
vt 1.450032 0.000000
vt 1.450032 1.000000
vt 1.500032 0.000000
vt 1.500032 1.000000
vt -0.499968 0.000000
vt -0.449968 0.000000
vt -0.449968 1.000000
vt -0.499968 1.000000
vt -0.399968 0.000000
vt -0.399968 1.000000
vt -0.349968 0.000000
vt -0.349968 1.000000
vt -0.299968 0.000000
vt -0.299968 1.000000
vt -0.249968 0.000000
vt -0.249968 1.000000
vt -0.199968 0.000000
vt -0.199968 1.000000
vt -0.149968 0.000000
vt -0.149968 1.000000
vt -0.099968 0.000000
vt -0.099968 1.000000
vt -0.049968 0.000000
vt -0.049968 1.000000
vt 0.000032 0.000000
vt 0.000032 1.000000
vt 0.050032 0.000000
vt 0.050032 1.000000
vt 0.100032 0.000000
vt 0.100032 1.000000
vt 0.150032 0.000000
vt 0.150032 1.000000
vt 0.200032 0.000000
vt 0.200032 1.000000
vt 0.250032 0.000000
vt 0.250032 1.000000
vt 0.300032 0.000000
vt 0.300032 1.000000
vt 0.350032 0.000000
vt 0.350032 1.000000
vt 0.400032 0.000000
vt 0.400032 1.000000
vt 0.450032 0.000000
vt 0.450032 1.000000
vt 0.500032 0.000000
vt 0.500032 1.000000
vt 0.550032 0.000000
vt 0.550032 1.000000
vt 0.600032 0.000000
vt 0.600032 1.000000
vt 0.650032 0.000000
vt 0.650032 1.000000
vt 0.700032 0.000000
vt 0.700032 1.000000
vt 0.750032 0.000000
vt 0.750032 1.000000
vt 0.800032 0.000000
vt 0.800032 1.000000
vt 0.850032 0.000000
vt 0.850032 1.000000
vt 0.900032 0.000000
vt 0.900032 1.000000
vt 0.950032 0.000000
vt 0.950032 1.000000
vt 1.000032 0.000000
vt 1.000032 1.000000
vt 0.654508 0.975529
vt 0.578217 0.993845
vt 0.500000 0.500000
vt 0.726995 0.945504
vt 0.793892 0.904509
vt 0.853553 0.853554
vt 0.904508 0.793893
vt 0.945503 0.726995
vt 0.975528 0.654509
vt 0.993844 0.578217
vt 1.000000 0.500000
vt 0.993844 0.421783
vt 0.975528 0.345492
vt 0.945503 0.273005
vt 0.904508 0.206107
vt 0.853553 0.146447
vt 0.793893 0.095491
vt 0.726995 0.054497
vt 0.654508 0.024472
vt 0.578217 0.006156
vt 0.500000 -0.000000
vt 0.421783 0.006156
vt 0.345491 0.024472
vt 0.273005 0.054497
vt 0.206107 0.095491
vt 0.146447 0.146446
vt 0.095491 0.206107
vt 0.054497 0.273005
vt 0.024472 0.345491
vt 0.006156 0.421783
vt -0.000000 0.500000
vt 0.006156 0.578217
vt 0.024472 0.654508
vt 0.054497 0.726995
vt 0.095491 0.793893
vt 0.146447 0.853553
vt 0.206107 0.904509
vt 0.273005 0.945503
vt 0.345491 0.975528
vt 0.421783 0.993844
vt 0.500000 1.000000
vt 0.578217 0.993845
vt 0.654508 0.975529
vt 0.500000 0.500000
vt 0.726995 0.945504
vt 0.793892 0.904509
vt 0.853553 0.853554
vt 0.904508 0.793893
vt 0.945503 0.726995
vt 0.975528 0.654509
vt 0.993844 0.578217
vt 1.000000 0.500000
vt 0.993844 0.421783
vt 0.975528 0.345492
vt 0.945503 0.273005
vt 0.904508 0.206107
vt 0.853553 0.146447
vt 0.793893 0.095491
vt 0.726995 0.054497
vt 0.654508 0.024472
vt 0.578217 0.006156
vt 0.500000 -0.000000
vt 0.421783 0.006156
vt 0.345491 0.024472
vt 0.273005 0.054497
vt 0.206107 0.095491
vt 0.146447 0.146446
vt 0.095491 0.206107
vt 0.054497 0.273005
vt 0.024472 0.345491
vt 0.006156 0.421783
vt -0.000000 0.500000
vt 0.006156 0.578217
vt 0.024472 0.654508
vt 0.054497 0.726995
vt 0.095491 0.793893
vt 0.146447 0.853553
vt 0.206107 0.904509
vt 0.273005 0.945503
vt 0.345491 0.975528
vt 0.421783 0.993844
vt 0.500000 1.000000
vn 0.987689 0.000000 -0.156432
vn 0.951057 0.000000 -0.309017
vn 0.951057 0.000000 -0.309017
vn 0.987689 0.000000 -0.156432
vn 0.951057 0.000000 -0.309017
vn 0.891007 0.000000 -0.453990
vn 0.891007 0.000000 -0.453990
vn 0.951057 0.000000 -0.309017
vn 0.891007 0.000000 -0.453990
vn 0.809017 0.000000 -0.587785
vn 0.809017 0.000000 -0.587785
vn 0.891007 0.000000 -0.453990
vn 0.809017 0.000000 -0.587785
vn 0.707107 0.000000 -0.707107
vn 0.707107 0.000000 -0.707107
vn 0.809017 0.000000 -0.587785
vn 0.707107 0.000000 -0.707107
vn 0.587785 0.000000 -0.809017
vn 0.587785 0.000000 -0.809017
vn 0.707107 0.000000 -0.707107
vn 0.587785 0.000000 -0.809017
vn 0.453991 0.000000 -0.891006
vn 0.453991 0.000000 -0.891006
vn 0.587785 0.000000 -0.809017
vn 0.453991 0.000000 -0.891006
vn 0.309017 0.000000 -0.951057
vn 0.309017 0.000000 -0.951057
vn 0.453991 0.000000 -0.891006
vn 0.309017 0.000000 -0.951057
vn 0.156435 0.000000 -0.987688
vn 0.156435 0.000000 -0.987688
vn 0.309017 0.000000 -0.951057
vn 0.156435 0.000000 -0.987688
vn 0.000000 0.000000 -1.000000
vn 0.000000 0.000000 -1.000000
vn 0.156435 0.000000 -0.987688
vn 0.000000 0.000000 -1.000000
vn -0.156435 0.000000 -0.987688
vn -0.156435 0.000000 -0.987688
vn 0.000000 0.000000 -1.000000
vn -0.156435 0.000000 -0.987688
vn -0.309017 0.000000 -0.951057
vn -0.309017 0.000000 -0.951057
vn -0.156435 0.000000 -0.987688
vn -0.309017 0.000000 -0.951057
vn -0.453990 0.000000 -0.891007
vn -0.453990 0.000000 -0.891007
vn -0.309017 0.000000 -0.951057
vn -0.453990 0.000000 -0.891007
vn -0.587785 0.000000 -0.809017
vn -0.587785 0.000000 -0.809017
vn -0.453990 0.000000 -0.891007
vn -0.587785 0.000000 -0.809017
vn -0.707107 0.000000 -0.707107
vn -0.707107 0.000000 -0.707107
vn -0.587785 0.000000 -0.809017
vn -0.707107 0.000000 -0.707107
vn -0.809017 0.000000 -0.587785
vn -0.809017 0.000000 -0.587785
vn -0.707107 0.000000 -0.707107
vn -0.809017 0.000000 -0.587785
vn -0.891006 0.000000 -0.453991
vn -0.891006 0.000000 -0.453991
vn -0.809017 0.000000 -0.587785
vn -0.891006 0.000000 -0.453991
vn -0.951057 0.000000 -0.309017
vn -0.951057 0.000000 -0.309017
vn -0.891006 0.000000 -0.453991
vn -0.951057 0.000000 -0.309017
vn -0.987688 0.000000 -0.156434
vn -0.987688 0.000000 -0.156434
vn -0.951057 0.000000 -0.309017
vn -0.987688 0.000000 -0.156434
vn -1.000000 0.000000 0.000000
vn -1.000000 0.000000 0.000000
vn -0.987688 0.000000 -0.156434
vn -1.000000 0.000000 0.000000
vn -0.987688 0.000000 0.156434
vn -0.987688 0.000000 0.156434
vn -1.000000 0.000000 0.000000
vn -0.987688 0.000000 0.156434
vn -0.951057 0.000000 0.309017
vn -0.951057 0.000000 0.309017
vn -0.987688 0.000000 0.156434
vn -0.951057 0.000000 0.309017
vn -0.891007 0.000000 0.453990
vn -0.891007 0.000000 0.453990
vn -0.951057 0.000000 0.309017
vn -0.891007 0.000000 0.453990
vn -0.809017 0.000000 0.587785
vn -0.809017 0.000000 0.587785
vn -0.891007 0.000000 0.453990
vn -0.809017 0.000000 0.587785
vn -0.707107 0.000000 0.707107
vn -0.707107 0.000000 0.707107
vn -0.809017 0.000000 0.587785
vn -0.707107 0.000000 0.707107
vn -0.587785 0.000000 0.809017
vn -0.587785 0.000000 0.809017
vn -0.707107 0.000000 0.707107
vn -0.587785 0.000000 0.809017
vn -0.453991 0.000000 0.891006
vn -0.453991 0.000000 0.891006
vn -0.587785 0.000000 0.809017
vn -0.453991 0.000000 0.891006
vn -0.309017 0.000000 0.951057
vn -0.309017 0.000000 0.951057
vn -0.453991 0.000000 0.891006
vn -0.309017 0.000000 0.951057
vn -0.156434 0.000000 0.987688
vn -0.156434 0.000000 0.987688
vn -0.309017 0.000000 0.951057
vn -0.156434 0.000000 0.987688
vn 0.000000 0.000000 1.000000
vn 0.000000 0.000000 1.000000
vn -0.156434 0.000000 0.987688
vn 0.000000 0.000000 1.000000
vn 0.156434 0.000000 0.987688
vn 0.156434 0.000000 0.987688
vn 0.000000 0.000000 1.000000
vn 0.156434 0.000000 0.987688
vn 0.309017 0.000000 0.951057
vn 0.309017 0.000000 0.951057
vn 0.156434 0.000000 0.987688
vn 0.309017 0.000000 0.951057
vn 0.453990 0.000000 0.891007
vn 0.453990 0.000000 0.891007
vn 0.309017 0.000000 0.951057
vn 0.453990 0.000000 0.891007
vn 0.587785 0.000000 0.809017
vn 0.587785 0.000000 0.809017
vn 0.453990 0.000000 0.891007
vn 0.587785 0.000000 0.809017
vn 0.707107 0.000000 0.707107
vn 0.707107 0.000000 0.707107
vn 0.587785 0.000000 0.809017
vn 0.707107 0.000000 0.707107
vn 0.809017 0.000000 0.587785
vn 0.809017 0.000000 0.587785
vn 0.707107 0.000000 0.707107
vn 0.809017 0.000000 0.587785
vn 0.891007 0.000000 0.453990
vn 0.891007 0.000000 0.453990
vn 0.809017 0.000000 0.587785
vn 0.891007 0.000000 0.453990
vn 0.951057 0.000000 0.309017
vn 0.951057 0.000000 0.309017
vn 0.891007 0.000000 0.453990
vn 0.951057 0.000000 0.309017
vn 0.987688 0.000000 0.156434
vn 0.987688 0.000000 0.156434
vn 0.951057 0.000000 0.309017
vn 0.987688 0.000000 0.156434
vn 1.000000 0.000000 0.000002
vn 1.000000 0.000000 0.000002
vn 0.987688 0.000000 0.156434
vn 1.000000 0.000000 0.000002
vn 0.987689 0.000000 -0.156432
vn 0.987689 0.000000 -0.156432
vn 1.000000 0.000000 0.000002
vn 0.000000 -1.000000 0.000000
vn 0.000000 -1.000000 0.000000
vn 0.000000 -1.000000 0.000000
vn 0.000000 -1.000000 0.000000
vn 0.000000 -1.000000 0.000000
vn 0.000000 -1.000000 0.000000
vn 0.000000 -1.000000 0.000000
vn 0.000000 -1.000000 0.000000
vn 0.000000 -1.000000 0.000000
vn 0.000000 -1.000000 0.000000
vn 0.000000 -1.000000 0.000000
vn 0.000000 -1.000000 0.000000
vn 0.000000 -1.000000 0.000000
vn 0.000000 -1.000000 0.000000
vn 0.000000 -1.000000 0.000000
vn 0.000000 -1.000000 0.000000
vn 0.000000 -1.000000 0.000000
vn 0.000000 -1.000000 0.000000
vn 0.000000 -1.000000 0.000000
vn 0.000000 -1.000000 0.000000
vn 0.000000 -1.000000 0.000000
vn 0.000000 -1.000000 0.000000
vn 0.000000 -1.000000 0.000000
vn 0.000000 -1.000000 0.000000
vn 0.000000 -1.000000 0.000000
vn 0.000000 -1.000000 0.000000
vn 0.000000 -1.000000 0.000000
vn 0.000000 -1.000000 0.000000
vn 0.000000 -1.000000 0.000000
vn 0.000000 -1.000000 0.000000
vn 0.000000 -1.000000 0.000000
vn 0.000000 -1.000000 0.000000
vn 0.000000 -1.000000 0.000000
vn 0.000000 -1.000000 0.000000
vn 0.000000 -1.000000 0.000000
vn 0.000000 -1.000000 0.000000
vn 0.000000 -1.000000 0.000000
vn 0.000000 -1.000000 0.000000
vn 0.000000 -1.000000 0.000000
vn 0.000000 -1.000000 0.000000
vn 0.000000 -1.000000 0.000000
vn 0.000000 -1.000000 0.000000
vn 0.000000 -1.000000 0.000000
vn 0.000000 -1.000000 0.000000
vn 0.000000 -1.000000 0.000000
vn 0.000000 -1.000000 0.000000
vn 0.000000 -1.000000 0.000000
vn 0.000000 -1.000000 0.000000
vn 0.000000 -1.000000 0.000000
vn 0.000000 -1.000000 0.000000
vn 0.000000 -1.000000 0.000000
vn 0.000000 -1.000000 0.000000
vn 0.000000 -1.000000 0.000000
vn 0.000000 -1.000000 0.000000
vn 0.000000 -1.000000 0.000000
vn 0.000000 -1.000000 0.000000
vn 0.000000 -1.000000 0.000000
vn 0.000000 -1.000000 0.000000
vn 0.000000 -1.000000 0.000000
vn 0.000000 -1.000000 0.000000
vn 0.000000 -1.000000 0.000000
vn 0.000000 -1.000000 0.000000
vn 0.000000 -1.000000 0.000000
vn 0.000000 -1.000000 0.000000
vn 0.000000 -1.000000 0.000000
vn 0.000000 -1.000000 0.000000
vn 0.000000 -1.000000 0.000000
vn 0.000000 -1.000000 0.000000
vn 0.000000 -1.000000 0.000000
vn 0.000000 -1.000000 0.000000
vn 0.000000 -1.000000 0.000000
vn 0.000000 -1.000000 0.000000
vn 0.000000 -1.000000 0.000000
vn 0.000000 -1.000000 0.000000
vn 0.000000 -1.000000 0.000000
vn 0.000000 -1.000000 0.000000
vn 0.000000 -1.000000 0.000000
vn 0.000000 -1.000000 0.000000
vn 0.000000 -1.000000 0.000000
vn 0.000000 -1.000000 0.000000
vn 0.000000 -1.000000 0.000000
vn 0.000000 -1.000000 0.000000
vn 0.000000 -1.000000 0.000000
vn 0.000000 -1.000000 0.000000
vn 0.000000 -1.000000 0.000000
vn 0.000000 -1.000000 0.000000
vn 0.000000 -1.000000 0.000000
vn 0.000000 -1.000000 0.000000
vn 0.000000 -1.000000 0.000000
vn 0.000000 -1.000000 0.000000
vn 0.000000 -1.000000 0.000000
vn 0.000000 -1.000000 0.000000
vn 0.000000 -1.000000 0.000000
vn 0.000000 -1.000000 0.000000
vn 0.000000 -1.000000 0.000000
vn 0.000000 -1.000000 0.000000
vn 0.000000 -1.000000 0.000000
vn 0.000000 -1.000000 0.000000
vn 0.000000 -1.000000 0.000000
vn 0.000000 -1.000000 0.000000
vn 0.000000 -1.000000 0.000000
vn 0.000000 -1.000000 0.000000
vn 0.000000 -1.000000 0.000000
vn 0.000000 -1.000000 0.000000
vn 0.000000 -1.000000 0.000000
vn 0.000000 -1.000000 0.000000
vn 0.000000 -1.000000 0.000000
vn 0.000000 -1.000000 0.000000
vn 0.000000 -1.000000 0.000000
vn 0.000000 -1.000000 0.000000
vn 0.000000 -1.000000 0.000000
vn 0.000000 -1.000000 0.000000
vn 0.000000 -1.000000 0.000000
vn 0.000000 -1.000000 0.000000
vn 0.000000 -1.000000 0.000000
vn 0.000000 -1.000000 0.000000
vn 0.000000 -1.000000 0.000000
vn 0.000000 -1.000000 0.000000
vn 0.000000 -1.000000 0.000000
vn 0.000000 -1.000000 0.000000
vn 0.000000 1.000000 0.000000
vn 0.000000 1.000000 0.000000
vn 0.000000 1.000000 0.000000
vn 0.000000 1.000000 0.000000
vn 0.000000 1.000000 0.000000
vn 0.000000 1.000000 0.000000
vn 0.000000 1.000000 0.000000
vn 0.000000 1.000000 0.000000
vn 0.000000 1.000000 0.000000
vn 0.000000 1.000000 0.000000
vn 0.000000 1.000000 0.000000
vn 0.000000 1.000000 0.000000
vn 0.000000 1.000000 0.000000
vn 0.000000 1.000000 0.000000
vn 0.000000 1.000000 0.000000
vn 0.000000 1.000000 0.000000
vn 0.000000 1.000000 0.000000
vn 0.000000 1.000000 0.000000
vn 0.000000 1.000000 0.000000
vn 0.000000 1.000000 0.000000
vn 0.000000 1.000000 0.000000
vn 0.000000 1.000000 0.000000
vn 0.000000 1.000000 0.000000
vn 0.000000 1.000000 0.000000
vn 0.000000 1.000000 0.000000
vn 0.000000 1.000000 0.000000
vn 0.000000 1.000000 0.000000
vn 0.000000 1.000000 0.000000
vn 0.000000 1.000000 0.000000
vn 0.000000 1.000000 0.000000
vn 0.000000 1.000000 0.000000
vn 0.000000 1.000000 0.000000
vn 0.000000 1.000000 0.000000
vn 0.000000 1.000000 0.000000
vn 0.000000 1.000000 0.000000
vn 0.000000 1.000000 0.000000
vn 0.000000 1.000000 0.000000
vn 0.000000 1.000000 0.000000
vn 0.000000 1.000000 0.000000
vn 0.000000 1.000000 0.000000
vn 0.000000 1.000000 0.000000
vn 0.000000 1.000000 0.000000
vn 0.000000 1.000000 0.000000
vn 0.000000 1.000000 0.000000
vn 0.000000 1.000000 0.000000
vn 0.000000 1.000000 0.000000
vn 0.000000 1.000000 0.000000
vn 0.000000 1.000000 0.000000
vn 0.000000 1.000000 0.000000
vn 0.000000 1.000000 0.000000
vn 0.000000 1.000000 0.000000
vn 0.000000 1.000000 0.000000
vn 0.000000 1.000000 0.000000
vn 0.000000 1.000000 0.000000
vn 0.000000 1.000000 0.000000
vn 0.000000 1.000000 0.000000
vn 0.000000 1.000000 0.000000
vn 0.000000 1.000000 0.000000
vn 0.000000 1.000000 0.000000
vn 0.000000 1.000000 0.000000
vn 0.000000 1.000000 0.000000
vn 0.000000 1.000000 0.000000
vn 0.000000 1.000000 0.000000
vn 0.000000 1.000000 0.000000
vn 0.000000 1.000000 0.000000
vn 0.000000 1.000000 0.000000
vn 0.000000 1.000000 0.000000
vn 0.000000 1.000000 0.000000
vn 0.000000 1.000000 0.000000
vn 0.000000 1.000000 0.000000
vn 0.000000 1.000000 0.000000
vn 0.000000 1.000000 0.000000
vn 0.000000 1.000000 0.000000
vn 0.000000 1.000000 0.000000
vn 0.000000 1.000000 0.000000
vn 0.000000 1.000000 0.000000
vn 0.000000 1.000000 0.000000
vn 0.000000 1.000000 0.000000
vn 0.000000 1.000000 0.000000
vn 0.000000 1.000000 0.000000
vn 0.000000 1.000000 0.000000
vn 0.000000 1.000000 0.000000
vn 0.000000 1.000000 0.000000
vn 0.000000 1.000000 0.000000
vn 0.000000 1.000000 0.000000
vn 0.000000 1.000000 0.000000
vn 0.000000 1.000000 0.000000
vn 0.000000 1.000000 0.000000
vn 0.000000 1.000000 0.000000
vn 0.000000 1.000000 0.000000
vn 0.000000 1.000000 0.000000
vn 0.000000 1.000000 0.000000
vn 0.000000 1.000000 0.000000
vn 0.000000 1.000000 0.000000
vn 0.000000 1.000000 0.000000
vn 0.000000 1.000000 0.000000
vn 0.000000 1.000000 0.000000
vn 0.000000 1.000000 0.000000
vn 0.000000 1.000000 0.000000
vn 0.000000 1.000000 0.000000
vn 0.000000 1.000000 0.000000
vn 0.000000 1.000000 0.000000
vn 0.000000 1.000000 0.000000
vn 0.000000 1.000000 0.000000
vn 0.000000 1.000000 0.000000
vn 0.000000 1.000000 0.000000
vn 0.000000 1.000000 0.000000
vn 0.000000 1.000000 0.000000
vn 0.000000 1.000000 0.000000
vn 0.000000 1.000000 0.000000
vn 0.000000 1.000000 0.000000
vn 0.000000 1.000000 0.000000
vn 0.000000 1.000000 0.000000
vn 0.000000 1.000000 0.000000
vn 0.000000 1.000000 0.000000
vn 0.000000 1.000000 0.000000
vn 0.000000 1.000000 0.000000
vn 0.000000 1.000000 0.000000
vn 0.000000 1.000000 0.000000
vn 0.000000 1.000000 0.000000
s off
g Mesh
usemtl initialShadingGroup
f 1/1/1 2/2/2 42/3/3 41/4/4
f 2/2/5 3/5/6 43/6/7 42/3/8
f 3/5/9 4/7/10 44/8/11 43/6/12
f 4/7/13 5/9/14 45/10/15 44/8/16
f 5/9/17 6/11/18 46/12/19 45/10/20
f 6/11/21 7/13/22 47/14/23 46/12/24
f 7/13/25 8/15/26 48/16/27 47/14/28
f 8/15/29 9/17/30 49/18/31 48/16/32
f 9/17/33 10/19/34 50/20/35 49/18/36
f 10/21/37 11/22/38 51/23/39 50/24/40
f 11/22/41 12/25/42 52/26/43 51/23/44
f 12/25/45 13/27/46 53/28/47 52/26/48
f 13/27/49 14/29/50 54/30/51 53/28/52
f 14/29/53 15/31/54 55/32/55 54/30/56
f 15/31/57 16/33/58 56/34/59 55/32/60
f 16/33/61 17/35/62 57/36/63 56/34/64
f 17/35/65 18/37/66 58/38/67 57/36/68
f 18/37/69 19/39/70 59/40/71 58/38/72
f 19/39/73 20/41/74 60/42/75 59/40/76
f 20/41/77 21/43/78 61/44/79 60/42/80
f 21/43/81 22/45/82 62/46/83 61/44/84
f 22/45/85 23/47/86 63/48/87 62/46/88
f 23/47/89 24/49/90 64/50/91 63/48/92
f 24/49/93 25/51/94 65/52/95 64/50/96
f 25/51/97 26/53/98 66/54/99 65/52/100
f 26/53/101 27/55/102 67/56/103 66/54/104
f 27/55/105 28/57/106 68/58/107 67/56/108
f 28/57/109 29/59/110 69/60/111 68/58/112
f 29/59/113 30/61/114 70/62/115 69/60/116
f 30/61/117 31/63/118 71/64/119 70/62/120
f 31/63/121 32/65/122 72/66/123 71/64/124
f 32/65/125 33/67/126 73/68/127 72/66/128
f 33/67/129 34/69/130 74/70/131 73/68/132
f 34/69/133 35/71/134 75/72/135 74/70/136
f 35/71/137 36/73/138 76/74/139 75/72/140
f 36/73/141 37/75/142 77/76/143 76/74/144
f 37/75/145 38/77/146 78/78/147 77/76/148
f 38/77/149 39/79/150 79/80/151 78/78/152
f 39/79/153 40/81/154 80/82/155 79/80/156
f 40/81/157 1/1/158 41/4/159 80/82/160
f 2/83/161 1/84/162 81/85/163
f 3/86/164 2/83/165 81/85/166
f 4/87/167 3/86/168 81/85/169
f 5/88/170 4/87/171 81/85/172
f 6/89/173 5/88/174 81/85/175
f 7/90/176 6/89/177 81/85/178
f 8/91/179 7/90/180 81/85/181
f 9/92/182 8/91/183 81/85/184
f 10/93/185 9/92/186 81/85/187
f 11/94/188 10/93/189 81/85/190
f 12/95/191 11/94/192 81/85/193
f 13/96/194 12/95/195 81/85/196
f 14/97/197 13/96/198 81/85/199
f 15/98/200 14/97/201 81/85/202
f 16/99/203 15/98/204 81/85/205
f 17/100/206 16/99/207 81/85/208
f 18/101/209 17/100/210 81/85/211
f 19/102/212 18/101/213 81/85/214
f 20/103/215 19/102/216 81/85/217
f 21/104/218 20/103/219 81/85/220
f 22/105/221 21/104/222 81/85/223
f 23/106/224 22/105/225 81/85/226
f 24/107/227 23/106/228 81/85/229
f 25/108/230 24/107/231 81/85/232
f 26/109/233 25/108/234 81/85/235
f 27/110/236 26/109/237 81/85/238
f 28/111/239 27/110/240 81/85/241
f 29/112/242 28/111/243 81/85/244
f 30/113/245 29/112/246 81/85/247
f 31/114/248 30/113/249 81/85/250
f 32/115/251 31/114/252 81/85/253
f 33/116/254 32/115/255 81/85/256
f 34/117/257 33/116/258 81/85/259
f 35/118/260 34/117/261 81/85/262
f 36/119/263 35/118/264 81/85/265
f 37/120/266 36/119/267 81/85/268
f 38/121/269 37/120/270 81/85/271
f 39/122/272 38/121/273 81/85/274
f 40/123/275 39/122/276 81/85/277
f 1/84/278 40/123/279 81/85/280
f 41/124/281 42/125/282 82/126/283
f 42/125/284 43/127/285 82/126/286
f 43/127/287 44/128/288 82/126/289
f 44/128/290 45/129/291 82/126/292
f 45/129/293 46/130/294 82/126/295
f 46/130/296 47/131/297 82/126/298
f 47/131/299 48/132/300 82/126/301
f 48/132/302 49/133/303 82/126/304
f 49/133/305 50/134/306 82/126/307
f 50/134/308 51/135/309 82/126/310
f 51/135/311 52/136/312 82/126/313
f 52/136/314 53/137/315 82/126/316
f 53/137/317 54/138/318 82/126/319
f 54/138/320 55/139/321 82/126/322
f 55/139/323 56/140/324 82/126/325
f 56/140/326 57/141/327 82/126/328
f 57/141/329 58/142/330 82/126/331
f 58/142/332 59/143/333 82/126/334
f 59/143/335 60/144/336 82/126/337
f 60/144/338 61/145/339 82/126/340
f 61/145/341 62/146/342 82/126/343
f 62/146/344 63/147/345 82/126/346
f 63/147/347 64/148/348 82/126/349
f 64/148/350 65/149/351 82/126/352
f 65/149/353 66/150/354 82/126/355
f 66/150/356 67/151/357 82/126/358
f 67/151/359 68/152/360 82/126/361
f 68/152/362 69/153/363 82/126/364
f 69/153/365 70/154/366 82/126/367
f 70/154/368 71/155/369 82/126/370
f 71/155/371 72/156/372 82/126/373
f 72/156/374 73/157/375 82/126/376
f 73/157/377 74/158/378 82/126/379
f 74/158/380 75/159/381 82/126/382
f 75/159/383 76/160/384 82/126/385
f 76/160/386 77/161/387 82/126/388
f 77/161/389 78/162/390 82/126/391
f 78/162/392 79/163/393 82/126/394
f 79/163/395 80/164/396 82/126/397
f 80/164/398 41/124/399 82/126/400
