# This file uses centimeters as units for non-parametric coordinates.

v -5.000000 1.000000 0.000000
v -6.000000 2.000000 1.000000
v 6.000000 2.000000 1.000000
v 5.000000 1.000000 0.000000
v -5.000000 1.000000 -10.000000
v -6.000000 2.000000 -11.000000
v 5.000000 1.000000 -10.000000
v 6.000000 2.000000 -11.000000
v 5.000000 0.000000 0.000000
v -5.000000 0.000000 0.000000
v 5.000000 0.000000 -10.000000
v -5.000000 0.000000 -10.000000
v -6.000000 -1.000000 -11.000000
v 6.000000 -1.000000 -11.000000
v 6.000000 -1.000000 1.000000
v -6.000000 -1.000000 1.000000
vt 0.039011 0.040764
vt 0.000998 0.002752
vt 0.457149 0.002752
vt 0.419137 0.040764
vt 0.457149 0.458903
vt 0.419137 0.420891
vt 0.500078 0.041410
vt 0.538091 0.003398
vt 0.538091 0.459549
vt 0.500078 0.421536
vt 0.462066 0.421536
vt 0.462066 0.041410
vt 0.273486 0.084759
vt 0.311499 0.046746
vt 0.311499 0.502897
vt 0.273486 0.464885
vt 0.235473 0.464885
vt 0.235473 0.084759
vt 0.552703 0.845312
vt 0.552703 0.465186
vt 0.590715 0.465186
vt 0.590715 0.845312
vt 0.271516 0.471651
vt 0.271516 0.851777
vt 0.233503 0.851777
vt 0.233503 0.471651
vt 0.976177 0.844521
vt 0.596051 0.844521
vt 0.596051 0.464395
vt 0.976177 0.464395
vt 0.542851 0.000920
vt 0.999002 0.000920
vt 0.999002 0.457071
vt 0.542851 0.457071
vt 0.430296 0.439549
vt 0.430296 0.895700
vt 0.316258 0.895700
vt 0.316258 0.439549
vt 0.115036 0.047444
vt 0.115036 0.503595
vt 0.000998 0.503595
vt 0.000998 0.047444
vt 0.434480 0.920754
vt 0.434480 0.464602
vt 0.548518 0.464602
vt 0.548518 0.920754
vt 0.231288 0.503595
vt 0.117250 0.503595
vt 0.117250 0.047444
vt 0.231288 0.047444
vn 0.000000 0.707107 -0.707107
vn 0.000000 0.707107 -0.707107
vn 0.000000 0.707107 -0.707107
vn 0.000000 0.707107 -0.707107
vn 0.707107 0.707107 0.000000
vn 0.707107 0.707107 0.000000
vn 0.707107 0.707107 0.000000
vn 0.707107 0.707107 0.000000
vn 0.000000 0.707107 0.707107
vn 0.000000 0.707107 0.707107
vn 0.000000 0.707107 0.707107
vn 0.000000 0.707107 0.707107
vn -0.707107 0.707107 0.000000
vn -0.707107 0.707107 0.000000
vn -0.707107 0.707107 0.000000
vn -0.707107 0.707107 0.000000
vn 0.000000 0.000000 -1.000000
vn 0.000000 0.000000 -1.000000
vn 0.000000 0.000000 -1.000000
vn 0.000000 0.000000 -1.000000
vn -1.000000 0.000000 0.000000
vn -1.000000 0.000000 0.000000
vn -1.000000 0.000000 0.000000
vn -1.000000 0.000000 0.000000
vn 0.000000 0.000000 1.000000
vn 0.000000 0.000000 1.000000
vn 0.000000 0.000000 1.000000
vn 0.000000 0.000000 1.000000
vn 1.000000 0.000000 0.000000
vn 1.000000 0.000000 0.000000
vn 1.000000 0.000000 0.000000
vn 1.000000 0.000000 0.000000
vn 0.000000 1.000000 0.000000
vn 0.000000 1.000000 0.000000
vn 0.000000 1.000000 0.000000
vn 0.000000 1.000000 0.000000
vn 0.000000 -1.000000 0.000000
vn 0.000000 -1.000000 0.000000
vn 0.000000 -1.000000 0.000000
vn 0.000000 -1.000000 0.000000
vn 0.000000 0.000000 1.000000
vn 0.000000 0.000000 1.000000
vn 0.000000 0.000000 1.000000
vn 0.000000 0.000000 1.000000
vn -1.000000 0.000000 0.000000
vn -1.000000 0.000000 0.000000
vn -1.000000 0.000000 0.000000
vn -1.000000 0.000000 0.000000
vn 0.000000 0.000000 -1.000000
vn 0.000000 0.000000 -1.000000
vn 0.000000 0.000000 -1.000000
vn 0.000000 0.000000 -1.000000
vn 1.000000 0.000000 0.000000
vn 1.000000 0.000000 0.000000
vn 1.000000 0.000000 0.000000
vn 1.000000 0.000000 0.000000
f 1/1/1 2/2/2 4/4/3
f 4/4/3 2/2/2 3/3/4
f 5/7/5 6/8/6 1/10/7
f 1/10/7 6/8/6 2/9/8
f 7/13/9 8/14/10 5/16/11
f 5/16/11 8/14/10 6/15/12
f 4/4/13 3/3/14 7/6/15
f 7/6/15 3/3/14 8/5/16
f 1/19/17 4/20/18 10/22/19
f 10/22/19 4/20/18 9/21/20
f 4/23/21 7/24/22 9/26/23
f 9/26/23 7/24/22 11/25/24
f 7/13/25 5/16/26 11/18/27
f 11/18/27 5/16/26 12/17/28
f 5/7/29 1/10/30 12/12/31
f 12/12/31 1/10/30 10/11/32
f 11/27/33 12/28/34 9/30/35
f 9/30/35 12/28/34 10/29/36
f 13/31/37 14/32/38 16/34/39
f 16/34/39 14/32/38 15/33/40
f 3/35/41 2/36/42 15/38/43
f 15/38/43 2/36/42 16/37/44
f 2/39/45 6/40/46 16/42/47
f 16/42/47 6/40/46 13/41/48
f 6/43/49 8/44/50 13/46/51
f 13/46/51 8/44/50 14/45/52
f 3/47/53 15/48/54 8/50/55
f 8/50/55 15/48/54 14/49/56
