# This file uses centimeters as units for non-parametric coordinates.

v -2.000000 0.000000 -12.000000
v -2.000000 0.000000 -20.000000
v -2.000000 4.000000 -20.000000
v -2.000000 4.000000 -13.000000
v -2.000000 4.000000 -12.000000
v 2.000000 0.000000 -8.000000
v 2.000000 0.000000 0.000000
v 2.000000 4.000000 0.000000
v 2.000000 4.000000 -7.000000
v 2.000000 4.000000 -8.000000
v -10.000000 0.000000 -12.000000
v -10.000000 0.000000 -8.000000
v -2.000000 0.000000 -8.000000
v -2.000000 0.000000 0.000000
v 10.000000 0.000000 -8.000000
v 10.000000 0.000000 -12.000000
v 2.000000 0.000000 -12.000000
v 2.000000 0.000000 -20.000000
v -2.000000 4.000000 -8.000000
v -10.000000 4.000000 -8.000000
v -10.000000 4.000000 -12.000000
v 10.000000 4.000000 -12.000000
v 2.000000 4.000000 -12.000000
v 10.000000 4.000000 -8.000000
v 3.000000 4.000000 -7.000000
v 3.000000 -1.000000 -7.000000
v 11.000000 -1.000000 -7.000000
v 11.000000 4.000000 -7.000000
v -3.000000 4.000000 -7.000000
v -11.000000 4.000000 -7.000000
v -11.000000 -1.000000 -7.000000
v -3.000000 -1.000000 -7.000000
v 3.000000 -1.000000 -13.000000
v 3.000000 4.000000 -13.000000
v 11.000000 4.000000 -13.000000
v 11.000000 -1.000000 -13.000000
v -3.000000 -1.000000 -13.000000
v -11.000000 -1.000000 -13.000000
v -11.000000 4.000000 -13.000000
v -3.000000 4.000000 -13.000000
v -3.000000 4.000000 -21.000000
v 3.000000 4.000000 -21.000000
v 3.000000 -1.000000 -21.000000
v -3.000000 -1.000000 -21.000000
v 2.000000 4.000000 -20.000000
v 2.000000 4.000000 -13.000000
v -3.000000 -1.000000 1.000000
v -3.000000 4.000000 1.000000
v 3.000000 4.000000 1.000000
v 3.000000 -1.000000 1.000000
v -2.000000 4.000000 0.000000
v -2.000000 4.000000 -7.000000
vt 0.000998 0.491331
vt 0.000998 0.316373
vt 0.088477 0.316373
vt 0.088477 0.469461
vt 0.088477 0.491331
vt 0.698525 0.666700
vt 0.698525 0.491743
vt 0.786004 0.491743
vt 0.786004 0.644831
vt 0.786004 0.666700
vt 0.315856 0.577580
vt 0.140898 0.577580
vt 0.140898 0.490101
vt 0.315856 0.490101
vt 0.315856 0.315143
vt 0.403335 0.315143
vt 0.403335 0.490101
vt 0.578293 0.490101
vt 0.578293 0.577580
vt 0.403335 0.577580
vt 0.403335 0.752538
vt 0.315856 0.752538
vt 0.800986 0.316296
vt 0.888464 0.316296
vt 0.888464 0.491254
vt 0.800986 0.491254
vt 0.840393 0.946110
vt 0.840393 0.858631
vt 0.927872 0.858631
vt 0.927872 0.946110
vt 0.608668 0.847979
vt 0.521189 0.847979
vt 0.521189 0.673021
vt 0.608668 0.673021
vt 0.000998 0.672610
vt 0.000998 0.497652
vt 0.088477 0.497652
vt 0.088477 0.672610
vt 0.726110 0.948080
vt 0.726110 0.860601
vt 0.813589 0.860601
vt 0.813589 0.948080
vt 0.893594 0.491254
vt 0.893594 0.316296
vt 0.981073 0.316296
vt 0.981073 0.491254
vt 0.900482 0.671529
vt 0.791134 0.671529
vt 0.791134 0.496571
vt 0.900482 0.496571
vt 0.200986 0.583267
vt 0.200986 0.758225
vt 0.091637 0.758225
vt 0.091637 0.583267
vt 0.837430 0.852924
vt 0.728081 0.852924
vt 0.728081 0.677966
vt 0.837430 0.677966
vt 0.999002 0.677966
vt 0.999002 0.852924
vt 0.889653 0.852924
vt 0.889653 0.677966
vt 0.519219 0.984747
vt 0.519219 0.853529
vt 0.628568 0.853529
vt 0.628568 0.984747
vt 0.285304 0.462886
vt 0.285304 0.309798
vt 0.307174 0.309798
vt 0.307174 0.484756
vt 0.175956 0.484756
vt 0.175956 0.309798
vt 0.197826 0.309798
vt 0.197826 0.462886
vt 0.460262 0.287928
vt 0.460262 0.200449
vt 0.285304 0.200449
vt 0.285304 0.178579
vt 0.307174 0.178579
vt 0.482132 0.178579
vt 0.482132 0.309798
vt 0.285304 0.287928
vt 0.022868 0.287928
vt 0.197826 0.287928
vt 0.000998 0.309798
vt 0.000998 0.178579
vt 0.175956 0.178579
vt 0.197826 0.178579
vt 0.197826 0.200449
vt 0.022868 0.200449
vt 0.197826 0.025491
vt 0.175956 0.003622
vt 0.307174 0.003622
vt 0.285304 0.025491
vt 0.584242 0.665617
vt 0.584242 0.490660
vt 0.693591 0.490660
vt 0.693591 0.665617
vt 0.660680 0.307167
vt 0.485722 0.307167
vt 0.485722 0.175948
vt 0.660680 0.175948
vt 0.660680 0.482124
vt 0.660680 0.000990
vt 0.791898 0.000990
vt 0.791898 0.175948
vt 0.791898 0.307167
vt 0.791898 0.482124
vt 0.966856 0.175948
vt 0.966856 0.307167
vt 0.518224 0.583267
vt 0.518224 0.758225
vt 0.408876 0.758225
vt 0.408876 0.583267
vt 0.613798 0.846896
vt 0.613798 0.671939
vt 0.723147 0.671939
vt 0.723147 0.846896
vt 0.403940 0.758635
vt 0.403940 0.933592
vt 0.294591 0.933592
vt 0.294591 0.758635
vt 0.000998 0.895959
vt 0.000998 0.764741
vt 0.110347 0.764741
vt 0.110347 0.895959
vt 0.406905 0.895960
vt 0.406905 0.764741
vt 0.516254 0.764741
vt 0.516254 0.895960
vt 0.113312 0.895960
vt 0.113312 0.764741
vt 0.222661 0.764741
vt 0.222661 0.895960
vt 0.905416 0.497654
vt 0.992895 0.497654
vt 0.992895 0.519523
vt 0.992895 0.672612
vt 0.905416 0.672612
vt 0.000998 0.991427
vt 0.000998 0.903948
vt 0.088477 0.903948
vt 0.088477 0.991427
vt 0.203952 0.584350
vt 0.291430 0.584350
vt 0.291430 0.606220
vt 0.291430 0.759308
vt 0.203952 0.759308
vt 0.720981 0.854611
vt 0.720981 0.942090
vt 0.633502 0.942090
vt 0.633502 0.854611
vn 1.000000 0.000000 0.000000
vn 1.000000 0.000000 0.000000
vn 1.000000 0.000000 0.000000
vn 1.000000 0.000000 0.000000
vn 1.000000 0.000000 0.000000
vn -1.000000 0.000000 0.000000
vn -1.000000 0.000000 0.000000
vn -1.000000 0.000000 0.000000
vn -1.000000 0.000000 0.000000
vn -1.000000 0.000000 0.000000
vn 0.000000 1.000000 0.000000
vn 0.000000 1.000000 0.000000
vn 0.000000 1.000000 0.000000
vn 0.000000 1.000000 0.000000
vn 0.000000 1.000000 0.000000
vn 0.000000 1.000000 0.000000
vn 0.000000 1.000000 0.000000
vn 0.000000 1.000000 0.000000
vn 0.000000 1.000000 0.000000
vn 0.000000 1.000000 0.000000
vn 0.000000 1.000000 0.000000
vn 0.000000 1.000000 0.000000
vn 0.000000 0.000000 -1.000000
vn 0.000000 0.000000 -1.000000
vn 0.000000 0.000000 -1.000000
vn 0.000000 0.000000 -1.000000
vn 1.000000 0.000000 0.000000
vn 1.000000 0.000000 0.000000
vn 1.000000 0.000000 0.000000
vn 1.000000 0.000000 0.000000
vn 0.000000 0.000000 1.000000
vn 0.000000 0.000000 1.000000
vn 0.000000 0.000000 1.000000
vn 0.000000 0.000000 1.000000
vn 0.000000 0.000000 1.000000
vn 0.000000 0.000000 1.000000
vn 0.000000 0.000000 1.000000
vn 0.000000 0.000000 1.000000
vn -1.000000 0.000000 0.000000
vn -1.000000 0.000000 0.000000
vn -1.000000 0.000000 0.000000
vn -1.000000 0.000000 0.000000
vn 0.000000 0.000000 -1.000000
vn 0.000000 0.000000 -1.000000
vn 0.000000 0.000000 -1.000000
vn 0.000000 0.000000 -1.000000
vn 0.000000 0.000000 1.000000
vn 0.000000 0.000000 1.000000
vn 0.000000 0.000000 1.000000
vn 0.000000 0.000000 1.000000
vn 0.000000 0.000000 1.000000
vn 0.000000 0.000000 1.000000
vn 0.000000 0.000000 1.000000
vn 0.000000 0.000000 1.000000
vn 0.000000 0.000000 -1.000000
vn 0.000000 0.000000 -1.000000
vn 0.000000 0.000000 -1.000000
vn 0.000000 0.000000 -1.000000
vn 0.000000 0.000000 -1.000000
vn 0.000000 0.000000 -1.000000
vn 0.000000 0.000000 -1.000000
vn 0.000000 0.000000 -1.000000
vn 0.000000 0.000000 -1.000000
vn 0.000000 0.000000 -1.000000
vn 0.000000 0.000000 -1.000000
vn 0.000000 0.000000 -1.000000
vn 0.000000 1.000000 0.000000
vn 0.000000 1.000000 0.000000
vn -0.000000 1.000000 0.000000
vn 0.000000 1.000000 0.000000
vn 0.000000 1.000000 0.000000
vn 0.000000 1.000000 0.000000
vn 0.000000 1.000000 0.000000
vn 0.000000 1.000000 0.000000
vn 1.000000 0.000000 0.000000
vn 1.000000 0.000000 0.000000
vn 1.000000 0.000000 0.000000
vn 1.000000 0.000000 0.000000
vn 0.000000 -1.000000 0.000000
vn 0.000000 -1.000000 0.000000
vn 0.000000 -1.000000 0.000000
vn 0.000000 -1.000000 0.000000
vn -1.000000 0.000000 0.000000
vn -1.000000 0.000000 0.000000
vn -1.000000 0.000000 0.000000
vn -1.000000 0.000000 0.000000
vn -1.000000 0.000000 0.000000
vn -1.000000 0.000000 0.000000
vn -1.000000 0.000000 0.000000
vn -1.000000 0.000000 0.000000
vn 1.000000 0.000000 0.000000
vn 1.000000 0.000000 0.000000
vn 1.000000 0.000000 0.000000
vn 1.000000 0.000000 0.000000
vn 0.000000 -1.000000 0.000000
vn 0.000000 -1.000000 0.000000
vn 0.000000 -1.000000 0.000000
vn 0.000000 -1.000000 0.000000
vn 0.000000 1.000000 0.000000
vn 0.000000 1.000000 0.000000
vn 0.000000 1.000000 0.000000
vn 0.000000 1.000000 0.000000
vn -0.000000 1.000000 0.000000
vn -0.000000 1.000000 0.000000
vn -0.000000 1.000000 0.000000
vn 0.000000 1.000000 0.000000
vn 0.000000 0.000000 1.000000
vn 0.000000 0.000000 1.000000
vn 0.000000 0.000000 1.000000
vn 0.000000 0.000000 1.000000
vn -1.000000 0.000000 0.000000
vn -1.000000 0.000000 0.000000
vn -1.000000 0.000000 0.000000
vn -1.000000 0.000000 0.000000
vn 1.000000 0.000000 0.000000
vn 1.000000 0.000000 0.000000
vn 1.000000 0.000000 0.000000
vn 1.000000 0.000000 0.000000
vn 0.000000 -1.000000 0.000000
vn 0.000000 -1.000000 0.000000
vn 0.000000 -1.000000 0.000000
vn 0.000000 -1.000000 0.000000
vn 0.000000 -1.000000 0.000000
vn 0.000000 -1.000000 0.000000
vn 0.000000 -1.000000 0.000000
vn 0.000000 -1.000000 0.000000
vn -0.000000 1.000000 0.000000
vn -0.000000 1.000000 0.000000
vn 0.000000 1.000000 0.000000
vn 0.000000 1.000000 0.000000
vn 0.000000 1.000000 0.000000
vn 0.000000 1.000000 0.000000
vn -0.000000 1.000000 0.000000
vn 0.000000 1.000000 0.000000
vn 0.000000 1.000000 0.000000
vn 0.000000 1.000000 0.000000
vn 0.000000 1.000000 0.000000
vn 0.000000 1.000000 0.000000
vn -0.000000 1.000000 0.000000
vn 0.000000 1.000000 0.000000
vn -0.000000 1.000000 0.000000
vn -0.000000 1.000000 0.000000
vn 0.000000 1.000000 0.000000
vn 0.000000 1.000000 0.000000
vn 0.000000 1.000000 0.000000
vn 0.000000 1.000000 0.000000
vn -1.000000 0.000000 0.000000
vn -1.000000 0.000000 0.000000
vn -1.000000 0.000000 0.000000
vn -1.000000 0.000000 0.000000
vn -1.000000 0.000000 0.000000
vn 0.000000 0.000000 1.000000
vn 0.000000 0.000000 1.000000
vn 0.000000 0.000000 1.000000
vn 0.000000 0.000000 1.000000
vn 1.000000 0.000000 0.000000
vn 1.000000 0.000000 0.000000
vn 1.000000 0.000000 0.000000
vn 1.000000 0.000000 0.000000
vn 1.000000 0.000000 0.000000
vn 0.000000 0.000000 -1.000000
vn 0.000000 0.000000 -1.000000
vn 0.000000 0.000000 -1.000000
vn 0.000000 0.000000 -1.000000
f 1/1/1 2/2/2 5/5/3
f 5/5/3 2/2/2 4/4/4
f 2/2/2 3/3/5 4/4/4
f 6/6/6 7/7/7 10/10/8
f 10/10/8 7/7/7 9/9/9
f 7/7/7 8/8/10 9/9/9
f 11/12/11 12/13/12 1/11/13
f 12/13/12 13/14/14 1/11/13
f 14/15/15 7/16/16 13/14/14
f 7/16/16 6/17/17 13/14/14
f 13/14/14 6/17/17 1/11/13
f 15/18/18 16/19/19 6/17/17
f 16/19/19 17/20/20 6/17/17
f 6/17/17 17/20/20 1/11/13
f 1/11/13 17/20/20 2/22/21
f 17/20/20 18/21/22 2/22/21
f 19/23/23 13/24/24 20/26/25
f 20/26/25 13/24/24 12/25/26
f 20/27/27 12/28/28 21/30/29
f 21/30/29 12/28/28 11/29/30
f 21/31/31 11/32/32 5/34/33
f 5/34/33 11/32/32 1/33/34
f 17/35/35 16/36/36 23/38/37
f 23/38/37 16/36/36 22/37/38
f 22/39/39 16/40/40 24/42/41
f 24/42/41 16/40/40 15/41/42
f 10/43/43 24/44/44 6/46/45
f 6/46/45 24/44/44 15/45/46
f 25/47/47 26/48/48 28/50/49
f 28/50/49 26/48/48 27/49/50
f 29/51/51 30/52/52 32/54/53
f 32/54/53 30/52/52 31/53/54
f 33/55/55 34/56/56 36/58/57
f 36/58/57 34/56/56 35/57/58
f 37/59/59 38/60/60 40/62/61
f 40/62/61 38/60/60 39/61/62
f 41/63/63 42/64/64 44/66/65
f 44/66/65 42/64/64 43/65/66
f 46/68/67 34/69/68 45/67/69
f 34/69/68 42/70/70 45/67/69
f 42/70/70 41/71/71 45/67/69
f 45/67/69 41/71/71 3/74/72
f 41/71/71 40/72/73 3/74/72
f 40/72/73 4/73/74 3/74/72
f 33/95/75 43/96/76 34/98/77
f 34/98/77 43/96/76 42/97/78
f 37/99/79 44/100/80 33/102/81
f 33/102/81 44/100/80 43/101/82
f 40/111/83 41/112/84 37/114/85
f 37/114/85 41/112/84 44/113/86
f 32/115/87 47/116/88 29/118/89
f 29/118/89 47/116/88 48/117/90
f 25/119/91 49/120/92 26/122/93
f 26/122/93 49/120/92 50/121/94
f 26/106/95 50/109/96 32/107/97
f 32/107/97 50/109/96 47/110/98
f 52/88/99 29/87/100 51/91/101
f 29/87/100 48/92/102 51/91/101
f 48/92/102 49/93/103 51/91/101
f 51/91/101 49/93/103 8/94/104
f 49/93/103 25/79/105 8/94/104
f 25/79/105 9/78/106 8/94/104
f 47/123/107 50/124/108 48/126/109
f 48/126/109 50/124/108 49/125/110
f 38/127/111 31/128/112 39/130/113
f 39/130/113 31/128/112 30/129/114
f 27/131/115 36/132/116 28/134/117
f 28/134/117 36/132/116 35/133/118
f 38/103/119 37/99/120 31/108/121
f 31/108/121 37/99/120 32/107/122
f 37/99/120 33/102/123 32/107/122
f 32/107/122 33/102/123 26/106/124
f 33/102/123 36/104/125 26/106/124
f 36/104/125 27/105/126 26/106/124
f 5/84/127 4/73/128 21/83/129
f 4/73/128 40/72/130 21/83/129
f 40/72/130 39/85/131 21/83/129
f 39/85/131 30/86/132 21/83/129
f 21/83/129 30/86/132 20/90/133
f 30/86/132 29/87/134 20/90/133
f 52/88/135 19/89/136 29/87/134
f 29/87/134 19/89/136 20/90/133
f 10/77/137 9/78/138 24/76/139
f 9/78/138 25/79/140 24/76/139
f 25/79/140 28/80/141 24/76/139
f 28/80/141 35/81/142 24/76/139
f 24/76/139 35/81/142 22/75/143
f 35/81/142 34/69/144 22/75/143
f 46/68/145 23/82/146 34/69/144
f 22/75/143 34/69/144 23/82/146
f 17/135/147 23/136/148 18/139/149
f 23/136/148 46/137/150 18/139/149
f 46/137/150 45/138/151 18/139/149
f 3/140/152 2/141/153 45/143/154
f 45/143/154 2/141/153 18/142/155
f 13/144/156 19/145/157 14/148/158
f 19/145/157 52/146/159 14/148/158
f 52/146/159 51/147/160 14/148/158
f 8/149/161 7/150/162 51/152/163
f 51/152/163 7/150/162 14/151/164
