# This file uses centimeters as units for non-parametric coordinates.

v 11.000000 0.000000 -20.000000
v -10.000000 0.000000 -20.000000
v -10.000000 0.000000 0.000000
v 11.000000 0.000000 0.000000
v -10.000000 4.000000 -20.000000
v 11.000000 4.000000 -20.000000
v 11.000000 4.000000 0.000000
v -10.000000 4.000000 0.000000
v -11.000000 -1.000000 -21.000000
v -11.000000 -1.000000 1.000000
v -11.000000 4.000000 1.000000
v -11.000000 4.000000 -21.000000
v 12.000000 -1.000000 1.000000
v 12.000000 -1.000000 -21.000000
v 12.000000 4.000000 -21.000000
v 12.000000 4.000000 1.000000
vt 0.824238 0.458133
vt 0.824238 0.867177
vt 0.434672 0.867177
vt 0.434672 0.458133
vt 0.916956 0.411818
vt 0.839042 0.411818
vt 0.839042 0.002774
vt 0.916956 0.002774
vt 0.916956 0.808405
vt 0.839043 0.808405
vt 0.839043 0.418839
vt 0.916956 0.418839
vt 0.921089 0.002349
vt 0.999002 0.002349
vt 0.999002 0.411393
vt 0.921089 0.411393
vt 0.999002 0.808405
vt 0.921089 0.808405
vt 0.921089 0.418839
vt 0.999002 0.418839
vt 0.635881 0.431353
vt 0.635881 0.002830
vt 0.733272 0.002830
vt 0.733272 0.431353
vt 0.737462 0.431353
vt 0.737462 0.002830
vt 0.834853 0.002830
vt 0.834853 0.431353
vt 0.100626 0.448906
vt 0.100626 0.000905
vt 0.529149 0.000905
vt 0.529149 0.448906
vt 0.000998 0.450378
vt 0.000998 0.002377
vt 0.098389 0.002377
vt 0.098389 0.450378
vt 0.000998 0.906190
vt 0.000998 0.458189
vt 0.429521 0.458189
vt 0.429521 0.906190
vt 0.410042 0.477667
vt 0.020476 0.477667
vt 0.020476 0.886712
vt 0.410042 0.886712
vt 0.534300 0.450860
vt 0.534300 0.002859
vt 0.631691 0.002859
vt 0.631691 0.450860
vn 0.000000 1.000000 0.000000
vn 0.000000 1.000000 0.000000
vn 0.000000 1.000000 0.000000
vn 0.000000 1.000000 0.000000
vn 0.000000 0.000000 1.000000
vn 0.000000 0.000000 1.000000
vn 0.000000 0.000000 1.000000
vn 0.000000 0.000000 1.000000
vn -1.000000 0.000000 0.000000
vn -1.000000 0.000000 0.000000
vn -1.000000 0.000000 0.000000
vn -1.000000 0.000000 0.000000
vn 0.000000 0.000000 -1.000000
vn 0.000000 0.000000 -1.000000
vn 0.000000 0.000000 -1.000000
vn 0.000000 0.000000 -1.000000
vn 1.000000 0.000000 0.000000
vn 1.000000 0.000000 0.000000
vn 1.000000 0.000000 0.000000
vn 1.000000 0.000000 0.000000
vn -1.000000 0.000000 0.000000
vn -1.000000 0.000000 0.000000
vn -1.000000 0.000000 0.000000
vn -1.000000 0.000000 0.000000
vn 1.000000 0.000000 0.000000
vn 1.000000 0.000000 0.000000
vn 1.000000 0.000000 0.000000
vn 1.000000 0.000000 0.000000
vn 0.000000 -1.000000 0.000000
vn 0.000000 -1.000000 0.000000
vn 0.000000 -1.000000 0.000000
vn 0.000000 -1.000000 0.000000
vn 0.000000 0.000000 -1.000000
vn 0.000000 0.000000 -1.000000
vn 0.000000 0.000000 -1.000000
vn 0.000000 0.000000 -1.000000
vn 0.000000 1.000000 0.000000
vn 0.000000 1.000000 0.000000
vn 0.000000 1.000000 0.000000
vn 0.000000 1.000000 0.000000
vn -0.000000 1.000000 0.000000
vn -0.000000 1.000000 0.000000
vn -0.000000 1.000000 0.000000
vn 0.000000 1.000000 0.000000
vn 0.000000 0.000000 1.000000
vn 0.000000 0.000000 1.000000
vn 0.000000 0.000000 1.000000
vn 0.000000 0.000000 1.000000
f 1/1/1 2/2/2 4/4/3
f 4/4/3 2/2/2 3/3/4
f 5/5/5 2/6/6 6/8/7
f 6/8/7 2/6/6 1/7/8
f 6/9/9 1/10/10 7/12/11
f 7/12/11 1/10/10 4/11/12
f 7/13/13 4/14/14 8/16/15
f 8/16/15 4/14/14 3/15/16
f 8/17/17 3/18/18 5/20/19
f 5/20/19 3/18/18 2/19/20
f 9/21/21 10/22/22 12/24/23
f 12/24/23 10/22/22 11/23/24
f 13/25/25 14/26/26 16/28/27
f 16/28/27 14/26/26 15/27/28
f 9/29/29 14/30/30 10/32/31
f 10/32/31 14/30/30 13/31/32
f 12/33/33 15/34/34 9/36/35
f 9/36/35 15/34/34 14/35/36
f 11/37/37 8/43/38 12/40/39
f 8/43/38 5/44/40 12/40/39
f 11/37/37 16/38/41 8/43/38
f 8/43/38 16/38/41 7/42/42
f 16/38/41 15/39/43 7/42/42
f 7/42/42 15/39/43 6/41/44
f 15/39/43 12/40/39 6/41/44
f 5/44/40 6/41/44 12/40/39
f 10/45/45 13/46/46 11/48/47
f 11/48/47 13/46/46 16/47/48
