# This file uses centimeters as units for non-parametric coordinates.

v 5.000000 0.000000 -5.000000
v 5.000000 0.000000 0.000000
v 5.000000 4.000000 0.000000
v 5.000000 4.000000 -5.000000
v 10.000000 4.000000 -15.000000
v 10.000000 0.000000 -15.000000
v 10.000000 0.000000 -5.000000
v 10.000000 4.000000 -5.000000
v 5.000000 0.000000 -15.000000
v -5.000000 0.000000 -15.000000
v -10.000000 0.000000 -15.000000
v -10.000000 0.000000 -5.000000
v -5.000000 0.000000 -5.000001
v -5.000000 0.000000 0.000000
v 5.000000 4.000000 -15.000000
v -10.000000 4.000000 -15.000000
v -5.000000 4.000000 -15.000000
v -5.000000 4.000000 -5.000001
v -10.000000 4.000000 -5.000000
v 6.000000 -1.000000 -4.000000
v 6.000000 4.000000 -4.000000
v 6.000000 4.000000 1.000000
v 6.000000 -1.000000 1.000000
v -6.000000 4.000000 -4.000000
v -6.000000 -1.000000 -4.000000
v -6.000000 -1.000000 1.000000
v -6.000000 4.000000 1.000000
v -11.000000 -1.000000 -16.000000
v -11.000000 -1.000000 -4.000000
v -11.000000 4.000000 -4.000000
v -11.000000 4.000000 -16.000000
v -6.000000 -1.000000 -16.000000
v 6.000000 -1.000000 -16.000000
v 11.000000 -1.000000 -16.000000
v 11.000000 -1.000000 -4.000000
v 11.000000 4.000000 -4.000000
v 11.000000 4.000000 -16.000000
v 6.000000 4.000000 -16.000000
v -6.000000 4.000000 -16.000000
v -5.000000 4.000000 0.000000
vt 0.341136 0.901789
vt 0.341136 0.789317
vt 0.431114 0.789317
vt 0.431114 0.901789
vt 0.755613 0.731266
vt 0.665636 0.731266
vt 0.665636 0.506322
vt 0.755613 0.506322
vt 0.341136 0.783103
vt 0.341136 0.670631
vt 0.431114 0.670631
vt 0.431114 0.783103
vt 0.113470 0.616664
vt 0.113470 0.504193
vt 0.338413 0.504193
vt 0.338413 0.616664
vt 0.338413 0.841608
vt 0.338413 0.954080
vt 0.113470 0.954080
vt 0.113470 0.841608
vt 0.000998 0.841608
vt 0.000998 0.616664
vt 0.886530 0.115359
vt 0.886530 0.002887
vt 0.976508 0.002887
vt 0.976508 0.115359
vt 0.976507 0.452774
vt 0.886530 0.452774
vt 0.886530 0.340303
vt 0.976508 0.340303
vt 0.853298 0.735141
vt 0.943276 0.735141
vt 0.943276 0.847612
vt 0.853298 0.847612
vt 0.849444 0.731266
vt 0.759467 0.731266
vt 0.759467 0.506322
vt 0.849444 0.506322
vt 0.547439 0.780025
vt 0.547439 0.892496
vt 0.434967 0.892496
vt 0.434967 0.780025
vt 0.833750 0.962870
vt 0.833750 0.850398
vt 0.946222 0.850398
vt 0.946222 0.962870
vt 0.886530 0.730784
vt 0.886530 0.460852
vt 0.999002 0.460852
vt 0.999002 0.730784
vt 0.270930 0.383372
vt 0.270930 0.495843
vt 0.000998 0.495843
vt 0.000998 0.383372
vt 0.000998 0.113440
vt 0.000998 0.000968
vt 0.270930 0.000968
vt 0.270930 0.113440
vt 0.383402 0.113440
vt 0.383402 0.383372
vt 0.662773 0.968734
vt 0.550301 0.968734
vt 0.550301 0.856263
vt 0.662773 0.856263
vt 0.498569 0.499599
vt 0.498569 0.387127
vt 0.386097 0.387127
vt 0.386097 0.117195
vt 0.498569 0.117195
vt 0.498569 0.004723
vt 0.768501 0.004723
vt 0.768501 0.117195
vt 0.768501 0.387127
vt 0.768501 0.499599
vt 0.746006 0.027218
vt 0.521063 0.027218
vt 0.521063 0.139689
vt 0.408591 0.139689
vt 0.408591 0.364633
vt 0.521063 0.364633
vt 0.521063 0.477104
vt 0.746006 0.477104
vt 0.746006 0.364633
vt 0.746006 0.139689
vt 0.883668 0.386331
vt 0.883668 0.498803
vt 0.771196 0.498803
vt 0.771196 0.386331
vt 0.771196 0.116399
vt 0.883668 0.116399
vt 0.771196 0.003927
vt 0.883668 0.003927
vt 0.341136 0.664320
vt 0.341136 0.394388
vt 0.453608 0.394388
vt 0.453608 0.664320
vt 0.571805 0.851445
vt 0.571805 0.738973
vt 0.684276 0.738973
vt 0.684276 0.851445
vt 0.456470 0.775745
vt 0.456470 0.505813
vt 0.568942 0.505813
vt 0.568942 0.775745
vt 0.687139 0.738492
vt 0.777116 0.738492
vt 0.777116 0.850964
vt 0.687139 0.850964
vt 0.571805 0.506881
vt 0.661782 0.506881
vt 0.661782 0.731824
vt 0.571805 0.731824
vn -1.000000 0.000000 0.000000
vn -1.000000 0.000000 0.000000
vn -1.000000 0.000000 0.000000
vn -1.000000 0.000000 0.000000
vn -1.000000 0.000000 0.000000
vn -1.000000 0.000000 0.000000
vn -1.000000 0.000000 0.000000
vn -1.000000 0.000000 0.000000
vn -0.000000 0.000000 -1.000000
vn -0.000000 0.000000 -1.000000
vn -0.000000 0.000000 -1.000000
vn 0.000000 0.000000 -1.000000
vn 0.000000 1.000000 0.000000
vn 0.000000 1.000000 0.000000
vn 0.000000 1.000000 0.000000
vn 0.000000 1.000000 0.000000
vn 0.000000 1.000000 0.000000
vn 0.000000 1.000000 0.000000
vn 0.000000 1.000000 0.000000
vn 0.000000 1.000000 0.000000
vn 0.000000 1.000000 0.000000
vn 0.000000 1.000000 0.000000
vn 0.000000 0.000000 1.000000
vn 0.000000 0.000000 1.000000
vn 0.000000 0.000000 1.000000
vn 0.000000 0.000000 1.000000
vn 0.000000 0.000000 1.000000
vn 0.000000 0.000000 1.000000
vn 0.000000 0.000000 1.000000
vn 0.000000 0.000000 1.000000
vn 0.000000 0.000000 1.000000
vn 0.000000 0.000000 1.000000
vn -0.000000 0.000000 -1.000000
vn -0.000000 0.000000 -1.000000
vn -0.000000 0.000000 -1.000000
vn -0.000000 0.000000 -1.000000
vn 1.000000 0.000000 0.000000
vn 1.000000 0.000000 0.000000
vn 1.000000 0.000000 0.000000
vn 1.000000 0.000000 0.000000
vn 1.000000 0.000000 0.000000
vn 1.000000 0.000000 0.000000
vn 1.000000 0.000000 0.000000
vn 1.000000 0.000000 0.000000
vn -1.000000 0.000000 0.000000
vn -1.000000 0.000000 0.000000
vn -1.000000 0.000000 0.000000
vn -1.000000 0.000000 0.000000
vn -1.000000 0.000000 0.000000
vn -1.000000 0.000000 0.000000
vn -1.000000 0.000000 0.000000
vn -1.000000 0.000000 0.000000
vn 0.000000 -1.000000 0.000000
vn 0.000000 -1.000000 0.000000
vn 0.000000 -1.000000 0.000000
vn 0.000000 -1.000000 0.000000
vn 0.000000 -1.000000 0.000000
vn 0.000000 -1.000000 0.000000
vn 0.000000 -1.000000 0.000000
vn 0.000000 -1.000000 0.000000
vn 0.000000 -1.000000 0.000000
vn 0.000000 -1.000000 0.000000
vn 0.000000 0.000000 1.000000
vn 0.000000 0.000000 1.000000
vn 0.000000 0.000000 1.000000
vn 0.000000 0.000000 1.000000
vn 0.000000 1.000000 0.000000
vn 0.000000 1.000000 0.000000
vn 0.000000 1.000000 0.000000
vn 0.000000 1.000000 0.000000
vn 0.000000 1.000000 0.000000
vn 0.000000 1.000000 0.000000
vn 0.000000 1.000000 0.000000
vn 0.000000 1.000000 0.000000
vn 0.000000 1.000000 0.000000
vn 0.000000 1.000000 0.000000
vn 0.000000 1.000000 0.000000
vn 0.000000 1.000000 0.000000
vn -0.000000 1.000000 0.000000
vn -0.000000 1.000000 0.000000
vn -0.000000 1.000000 0.000000
vn 0.000000 1.000000 0.000000
vn 0.000000 1.000000 0.000000
vn 0.000000 1.000000 0.000000
vn -0.000000 1.000000 0.000000
vn -0.000000 1.000000 0.000000
vn 0.000000 0.000000 -1.000000
vn 0.000000 0.000000 -1.000000
vn 0.000000 0.000000 -1.000000
vn 0.000000 0.000000 -1.000000
vn 1.000000 0.000000 0.000000
vn 1.000000 0.000000 0.000000
vn 1.000000 0.000000 0.000000
vn 1.000000 0.000000 0.000000
vn 0.000000 0.000000 -1.000000
vn 0.000000 0.000000 -1.000000
vn 0.000000 0.000000 -1.000000
vn 0.000000 0.000000 -1.000000
vn 0.000000 0.000000 1.000000
vn 0.000000 0.000000 1.000000
vn 0.000000 0.000000 1.000000
vn 0.000000 0.000000 1.000000
vn 0.000000 0.000000 -1.000000
vn 0.000000 0.000000 -1.000000
vn 0.000000 0.000000 -1.000000
vn 0.000000 0.000000 -1.000000
vn 0.000000 0.000000 1.000000
vn 0.000000 0.000000 1.000000
vn 0.000000 0.000000 1.000000
vn 0.000000 0.000000 1.000000
vn 1.000000 0.000000 0.000000
vn 1.000000 0.000000 0.000000
vn 1.000000 0.000000 0.000000
vn 1.000000 0.000000 0.000000
vn 0.000000 0.000000 -1.000000
vn 0.000000 0.000000 -1.000000
vn 0.000000 0.000000 -1.000000
vn 0.000000 0.000000 -1.000000
f 1/1/1 2/2/2 4/4/3
f 4/4/3 2/2/2 3/3/4
f 5/5/5 6/6/6 8/8/7
f 8/8/7 6/6/6 7/7/8
f 4/9/9 8/10/10 1/12/11
f 1/12/11 8/10/10 7/11/12
f 7/14/13 6/15/14 1/13/15
f 6/15/14 9/16/16 1/13/15
f 9/16/16 10/17/17 1/13/15
f 11/18/18 12/19/19 10/17/17
f 12/19/19 13/20/20 10/17/17
f 10/17/17 13/20/20 1/13/15
f 1/13/15 13/20/20 2/22/21
f 13/20/20 14/21/22 2/22/21
f 9/23/23 6/24/24 15/26/25
f 15/26/25 6/24/24 5/25/26
f 16/27/27 11/28/28 17/30/29
f 11/28/28 10/29/30 17/30/29
f 10/29/30 9/23/31 17/30/29
f 9/23/31 15/26/32 17/30/29
f 18/31/33 13/32/34 19/34/35
f 19/34/35 13/32/34 12/33/36
f 19/35/37 12/36/38 16/38/39
f 16/38/39 12/36/38 11/37/40
f 20/39/41 21/40/42 23/42/43
f 23/42/43 21/40/42 22/41/44
f 24/43/45 25/44/46 27/46/47
f 27/46/47 25/44/46 26/45/48
f 28/47/49 29/48/50 31/50/51
f 31/50/51 29/48/50 30/49/52
f 29/52/53 28/53/54 25/51/55
f 28/53/54 32/54/56 25/51/55
f 32/54/56 33/55/57 25/51/55
f 34/56/58 35/57/59 33/55/57
f 33/55/57 35/57/59 25/51/55
f 35/57/59 20/58/60 25/51/55
f 25/51/55 20/58/60 26/60/61
f 20/58/60 23/59/62 26/60/61
f 24/61/63 30/62/64 25/64/65
f 25/64/65 30/62/64 29/63/66
f 30/65/67 19/81/68 31/74/69
f 19/81/68 16/82/70 31/74/69
f 30/65/67 24/66/71 19/81/68
f 19/81/68 24/66/71 18/80/72
f 18/80/72 24/66/71 40/79/73
f 24/66/71 27/67/74 40/79/73
f 27/67/74 22/68/75 40/79/73
f 40/79/73 22/68/75 3/78/76
f 22/68/75 21/69/77 3/78/76
f 3/78/76 21/69/77 4/77/78
f 4/77/78 21/69/77 8/76/79
f 21/69/77 36/70/80 8/76/79
f 36/70/80 37/71/81 8/76/79
f 8/76/79 37/71/81 5/75/82
f 37/71/81 38/72/83 5/75/82
f 5/75/82 38/72/83 15/84/84
f 38/72/83 39/73/85 15/84/84
f 15/84/84 39/73/85 17/83/86
f 17/83/86 39/73/85 16/82/70
f 16/82/70 39/73/85 31/74/69
f 32/85/87 28/86/88 39/88/89
f 39/88/89 28/86/88 31/87/90
f 35/93/91 34/94/92 36/96/93
f 36/96/93 34/94/92 37/95/94
f 38/89/95 37/91/96 33/90/97
f 33/90/97 37/91/96 34/92/98
f 20/97/99 35/98/100 21/100/101
f 21/100/101 35/98/100 36/99/102
f 39/88/103 38/89/104 32/85/105
f 32/85/105 38/89/104 33/90/106
f 26/101/107 23/102/108 27/104/109
f 27/104/109 23/102/108 22/103/110
f 13/105/111 18/106/112 14/108/113
f 14/108/113 18/106/112 40/107/114
f 3/109/115 2/110/116 40/112/117
f 40/112/117 2/110/116 14/111/118
