# This file uses centimeters as units for non-parametric coordinates.

v -9.000000 6.000000 6.000000
v -9.000000 6.000000 7.000000
v -11.000000 6.000000 7.000000
v -11.000000 6.000000 6.000000
v -11.000000 6.000000 -6.000000
v -11.000000 6.000000 -7.000000
v -9.000000 6.000000 -7.000000
v -8.999999 6.000000 -6.000000
v -11.000000 6.000000 -5.000000
v -11.000000 6.000000 5.000000
v -11.000000 8.000000 7.000000
v -11.000000 8.000000 -7.000000
v -9.000000 6.000000 5.000000
v -9.000000 6.000000 -5.000000
v -9.000000 8.000000 -7.000000
v -9.000000 8.000000 7.000000
v -21.000000 6.000000 -6.000000
v -21.000000 6.000000 6.000000
v -20.000000 6.000000 5.000000
v -20.000000 6.000000 -5.000000
v -1.000000 6.000000 6.000000
v -1.000000 6.000000 5.000000
v 11.000000 6.000000 6.000000
v 11.000000 6.000000 7.000000
v 9.000000 6.000000 7.000000
v 9.000000 6.000000 6.000000
v 9.000000 6.000000 -6.000000
v 9.000000 6.000000 -7.000000
v 11.000000 6.000000 -7.000000
v 11.000000 6.000000 -6.000000
v 9.000000 6.000000 -5.000000
v 9.000000 6.000000 5.000000
v 9.000000 8.000000 7.000000
v 9.000000 8.000000 -7.000000
v 11.000000 6.000000 5.000000
v 11.000000 6.000000 -5.000000
v 11.000000 8.000000 -7.000000
v 11.000000 8.000000 7.000000
v 1.000001 6.000000 -6.000000
v 1.000000 6.000000 -5.000000
v -21.000000 -1.000000 6.000000
v 21.000000 -1.000000 6.000000
v 21.000000 6.000000 6.000000
v 1.000000 6.000000 6.000000
v 21.000000 6.000000 -6.000000
v 20.000000 6.000000 -5.000000
v 20.000000 6.000000 5.000000
v -0.999999 6.000000 -6.000000
v 21.000000 -1.000000 -6.000000
v -21.000000 -1.000000 -6.000000
v 0.999999 6.000000 5.000000
v 20.000000 0.000000 5.000000
v -20.000000 0.000000 5.000000
v 20.000000 0.000000 -5.000000
v -20.000000 0.000000 -5.000000
v -1.000000 6.000000 -5.000000
v -1.000000 6.000000 7.000000
v 1.000000 6.000000 7.000000
v 1.000000 8.000000 7.000000
v -1.000000 8.000000 7.000000
v 1.000000 8.000000 -7.000000
v -1.000000 8.000000 -7.000000
v 1.000000 6.000000 -7.000000
v -1.000000 6.000000 -7.000000
vt 0.958859 0.857206
vt 0.975968 0.857206
vt 0.975968 0.891424
vt 0.958859 0.891424
vt 0.434824 0.759858
vt 0.417715 0.759858
vt 0.417715 0.725640
vt 0.434824 0.725640
vt 0.844311 0.207734
vt 0.844311 0.036646
vt 0.844311 0.019537
vt 0.844311 0.002428
vt 0.878528 0.002428
vt 0.878528 0.241951
vt 0.844311 0.241951
vt 0.844311 0.224843
vt 0.956884 0.207734
vt 0.956884 0.036646
vt 0.956884 0.019537
vt 0.956884 0.002428
vt 0.991102 0.002428
vt 0.991102 0.241951
vt 0.956884 0.241951
vt 0.956884 0.224843
vt 0.925285 0.664980
vt 0.925285 0.493892
vt 0.959502 0.493892
vt 0.959502 0.664980
vt 0.417715 0.769461
vt 0.451933 0.769461
vt 0.451933 0.803679
vt 0.417715 0.803679
vt 0.844311 0.249696
vt 0.878528 0.249696
vt 0.878528 0.489219
vt 0.844311 0.489219
vt 0.378215 0.871371
vt 0.412433 0.871371
vt 0.412433 0.905588
vt 0.378215 0.905588
vt 0.628302 0.881594
vt 0.628302 0.898703
vt 0.457215 0.898703
vt 0.457215 0.693397
vt 0.628302 0.693397
vt 0.628302 0.710506
vt 0.474323 0.710506
vt 0.474323 0.881594
vt 0.395324 0.865186
vt 0.378215 0.865186
vt 0.378215 0.728315
vt 0.395324 0.728315
vt 0.978609 0.857206
vt 0.995718 0.857206
vt 0.995718 0.891424
vt 0.978609 0.891424
vt 0.938444 0.925756
vt 0.921335 0.925756
vt 0.921335 0.891538
vt 0.938444 0.891538
vt 0.881835 0.207734
vt 0.881835 0.036646
vt 0.881835 0.019537
vt 0.881835 0.002428
vt 0.916053 0.002428
vt 0.916053 0.241951
vt 0.881835 0.241951
vt 0.881835 0.224843
vt 0.881835 0.454604
vt 0.881835 0.283516
vt 0.881835 0.266407
vt 0.881835 0.249298
vt 0.916053 0.249298
vt 0.916053 0.488821
vt 0.881835 0.488821
vt 0.881835 0.471713
vt 0.962809 0.664980
vt 0.962809 0.493892
vt 0.997027 0.493892
vt 0.997027 0.664980
vt 0.417715 0.810936
vt 0.451933 0.810936
vt 0.451933 0.845154
vt 0.417715 0.845154
vt 0.919360 0.249696
vt 0.953577 0.249696
vt 0.953577 0.489219
vt 0.919360 0.489219
vt 0.415740 0.893096
vt 0.449958 0.893096
vt 0.449958 0.927313
vt 0.415740 0.927313
vt 0.415074 0.863786
vt 0.397965 0.863786
vt 0.397965 0.726916
vt 0.415074 0.726916
vt 0.120760 0.515177
vt 0.120760 0.549394
vt 0.120760 0.720482
vt 0.000998 0.720482
vt 0.000998 0.001913
vt 0.120760 0.001913
vt 0.120760 0.173001
vt 0.120760 0.207218
vt 0.120760 0.344089
vt 0.120760 0.378306
vt 0.631013 0.710509
vt 0.631013 0.693400
vt 0.802101 0.693400
vt 0.802101 0.898706
vt 0.631013 0.898706
vt 0.631013 0.881597
vt 0.784992 0.881597
vt 0.784992 0.710509
vt 0.125420 0.550114
vt 0.125420 0.515896
vt 0.125420 0.379026
vt 0.125420 0.344808
vt 0.125420 0.207938
vt 0.125420 0.173721
vt 0.125420 0.002633
vt 0.245182 0.002633
vt 0.245182 0.721202
vt 0.125420 0.721202
vt 0.249843 0.719500
vt 0.249843 0.000931
vt 0.455148 0.000931
vt 0.455148 0.719500
vt 0.129370 0.931916
vt 0.129370 0.726610
vt 0.249132 0.726610
vt 0.249132 0.931916
vt 0.253793 0.931917
vt 0.253793 0.726611
vt 0.373554 0.726611
vt 0.373554 0.931917
vt 0.457215 0.531685
vt 0.457215 0.497467
vt 0.457215 0.360597
vt 0.457215 0.326379
vt 0.457215 0.189509
vt 0.457215 0.155291
vt 0.457215 0.001312
vt 0.559867 0.001312
vt 0.559867 0.685664
vt 0.457215 0.685664
vt 0.917339 0.911508
vt 0.814686 0.911508
vt 0.814686 0.740421
vt 0.917339 0.740421
vt 0.666516 0.498057
vt 0.666516 0.532274
vt 0.666516 0.686253
vt 0.563863 0.686253
vt 0.563863 0.001902
vt 0.666516 0.001902
vt 0.666516 0.155881
vt 0.666516 0.190098
vt 0.666516 0.326969
vt 0.666516 0.361186
vt 0.103651 0.897689
vt 0.000998 0.897689
vt 0.000998 0.726601
vt 0.103651 0.726601
vt 0.841600 0.001611
vt 0.841600 0.685963
vt 0.670512 0.685963
vt 0.670512 0.001611
vt 0.975968 0.811862
vt 0.958859 0.811862
vt 0.958859 0.674991
vt 0.975968 0.674991
vt 0.995718 0.812436
vt 0.978609 0.812436
vt 0.978609 0.675566
vt 0.995718 0.675566
vt 0.964784 0.852263
vt 0.964784 0.818045
vt 0.999002 0.818045
vt 0.999002 0.852263
vt 0.956884 0.249696
vt 0.991102 0.249696
vt 0.991102 0.489219
vt 0.956884 0.489219
vt 0.921335 0.852410
vt 0.955552 0.852410
vt 0.955552 0.886628
vt 0.921335 0.886628
vt 0.921335 0.842727
vt 0.921335 0.671639
vt 0.955552 0.671639
vt 0.955552 0.842727
vt 0.881835 0.701474
vt 0.881835 0.530386
vt 0.881835 0.513277
vt 0.881835 0.496169
vt 0.916053 0.496169
vt 0.916053 0.735692
vt 0.881835 0.735692
vt 0.881835 0.718583
vt 0.919360 0.207734
vt 0.919360 0.036646
vt 0.919360 0.019537
vt 0.919360 0.002428
vt 0.953577 0.002428
vt 0.953577 0.241951
vt 0.919360 0.241951
vt 0.919360 0.224843
vt 0.434824 0.884281
vt 0.417715 0.884281
vt 0.417715 0.850064
vt 0.434824 0.850064
vt 0.437465 0.849308
vt 0.454574 0.849308
vt 0.454574 0.883525
vt 0.437465 0.883525
vn 0.000000 -1.000000 0.000000
vn 0.000000 -1.000000 0.000000
vn 0.000000 -1.000000 0.000000
vn 0.000000 -1.000000 0.000000
vn 0.000000 -1.000000 0.000000
vn 0.000000 -1.000000 0.000000
vn 0.000000 -1.000000 0.000000
vn 0.000000 -1.000000 0.000000
vn -1.000000 0.000000 0.000000
vn -1.000000 0.000000 0.000000
vn -1.000000 0.000000 0.000000
vn -1.000000 0.000000 0.000000
vn -1.000000 0.000000 0.000000
vn -1.000000 0.000000 0.000000
vn -1.000000 0.000000 0.000000
vn -1.000000 0.000000 0.000000
vn 1.000000 0.000000 -0.000001
vn 1.000000 0.000000 -0.000000
vn 1.000000 0.000000 0.000000
vn 1.000000 0.000000 0.000000
vn 1.000000 0.000000 0.000000
vn 1.000000 0.000000 0.000000
vn 1.000000 0.000000 0.000000
vn 1.000000 0.000000 0.000000
vn 0.000000 -1.000000 0.000000
vn 0.000000 -1.000000 0.000000
vn 0.000000 -1.000000 0.000000
vn 0.000000 -1.000000 0.000000
vn 0.000000 0.000000 -1.000000
vn 0.000000 0.000000 -1.000000
vn 0.000000 0.000000 -1.000000
vn 0.000000 0.000000 -1.000000
vn 0.000000 1.000000 0.000000
vn 0.000000 1.000000 0.000000
vn 0.000000 1.000000 0.000000
vn 0.000000 1.000000 0.000000
vn 0.000000 0.000000 1.000000
vn 0.000000 0.000000 1.000000
vn 0.000000 0.000000 1.000000
vn 0.000000 0.000000 1.000000
vn 0.000000 1.000000 0.000000
vn 0.000000 1.000000 0.000000
vn 0.000000 1.000000 0.000000
vn 0.000000 1.000000 0.000000
vn 0.000000 1.000000 0.000000
vn 0.000000 1.000000 0.000000
vn 0.000000 1.000000 0.000000
vn 0.000000 1.000000 0.000000
vn 0.000000 1.000000 0.000000
vn 0.000000 1.000000 0.000000
vn 0.000000 1.000000 0.000000
vn 0.000000 1.000000 0.000000
vn 0.000000 -1.000000 0.000000
vn 0.000000 -1.000000 0.000000
vn 0.000000 -1.000000 0.000000
vn 0.000000 -1.000000 0.000000
vn 0.000000 -1.000000 0.000000
vn 0.000000 -1.000000 0.000000
vn 0.000000 -1.000000 0.000000
vn 0.000000 -1.000000 0.000000
vn -1.000000 0.000000 0.000000
vn -1.000000 0.000000 0.000000
vn -1.000000 0.000000 0.000000
vn -1.000000 0.000000 0.000000
vn -1.000000 0.000000 0.000000
vn -1.000000 0.000000 0.000000
vn -1.000000 0.000000 0.000000
vn -1.000000 0.000000 0.000000
vn 1.000000 0.000000 0.000000
vn 1.000000 0.000000 0.000000
vn 1.000000 0.000000 0.000000
vn 1.000000 0.000000 0.000000
vn 1.000000 0.000000 0.000000
vn 1.000000 0.000000 0.000000
vn 1.000000 0.000000 0.000000
vn 1.000000 0.000000 0.000000
vn 0.000000 -1.000000 0.000000
vn 0.000000 -1.000000 0.000000
vn 0.000000 -1.000000 0.000000
vn 0.000000 -1.000000 0.000000
vn 0.000000 0.000000 -1.000000
vn 0.000000 0.000000 -1.000000
vn 0.000000 0.000000 -1.000000
vn 0.000000 0.000000 -1.000000
vn 0.000000 1.000000 0.000000
vn 0.000000 1.000000 0.000000
vn 0.000000 1.000000 0.000000
vn 0.000000 1.000000 0.000000
vn 0.000000 0.000000 1.000000
vn 0.000000 0.000000 1.000000
vn 0.000000 0.000000 1.000000
vn 0.000000 0.000000 1.000000
vn 0.000000 1.000000 0.000000
vn 0.000000 1.000000 0.000000
vn 0.000000 1.000000 0.000000
vn 0.000000 1.000000 0.000000
vn 0.000000 0.000000 1.000000
vn 0.000000 0.000000 1.000000
vn 0.000000 0.000000 1.000000
vn 0.000000 0.000000 1.000000
vn 0.000000 0.000000 1.000000
vn 0.000000 0.000000 1.000000
vn 0.000000 0.000000 1.000000
vn 0.000000 0.000000 1.000000
vn 0.000000 0.000000 1.000000
vn 0.000000 0.000000 1.000000
vn 0.000000 1.000000 0.000000
vn 0.000000 1.000000 0.000000
vn 0.000000 1.000000 0.000000
vn 0.000000 1.000000 0.000000
vn 0.000000 1.000000 0.000000
vn 0.000000 1.000000 0.000000
vn 0.000000 1.000000 0.000000
vn 0.000000 1.000000 0.000000
vn 0.000000 0.000000 -1.000000
vn 0.000000 0.000000 -1.000000
vn 0.000000 -0.000000 -1.000000
vn 0.000000 -0.000000 -1.000000
vn 0.000000 -0.000001 -1.000000
vn 0.000000 -0.000000 -1.000000
vn 0.000000 -0.000000 -1.000000
vn 0.000000 0.000000 -1.000000
vn 0.000000 0.000000 -1.000000
vn 0.000000 0.000000 -1.000000
vn 0.000000 -1.000000 0.000000
vn 0.000000 -1.000000 0.000000
vn 0.000000 -1.000000 0.000000
vn 0.000000 -1.000000 0.000000
vn 1.000000 0.000000 0.000000
vn 1.000000 0.000000 0.000000
vn 1.000000 0.000000 0.000000
vn 1.000000 0.000000 0.000000
vn -1.000000 0.000000 0.000000
vn -1.000000 0.000000 0.000000
vn -1.000000 0.000000 0.000000
vn -1.000000 0.000000 0.000000
vn 0.000000 0.000000 -1.000000
vn 0.000000 0.000000 -1.000000
vn 0.000000 0.000000 -1.000000
vn 0.000000 0.000000 -1.000000
vn 0.000000 0.000000 -1.000000
vn 0.000000 0.000000 -1.000000
vn 0.000000 0.000000 -1.000000
vn 0.000000 0.000000 -1.000000
vn 0.000000 0.000000 -1.000000
vn 0.000000 0.000000 -1.000000
vn -1.000000 0.000000 0.000000
vn -1.000000 0.000000 0.000000
vn -1.000000 0.000000 0.000000
vn -1.000000 0.000000 0.000000
vn 0.000000 0.000000 1.000000
vn 0.000000 0.000000 1.000000
vn 0.000000 0.000000 1.000000
vn 0.000000 0.000000 1.000000
vn 0.000000 0.000001 1.000000
vn 0.000000 -0.000000 1.000000
vn 0.000000 -0.000000 1.000000
vn 0.000000 0.000000 1.000000
vn 0.000000 0.000000 1.000000
vn 0.000000 0.000000 1.000000
vn 1.000000 0.000000 0.000000
vn 1.000000 0.000000 0.000000
vn 1.000000 0.000000 0.000000
vn 1.000000 0.000000 0.000000
vn 0.000000 1.000000 0.000000
vn 0.000000 1.000000 0.000000
vn 0.000000 1.000000 0.000000
vn 0.000000 1.000000 0.000000
vn 0.000000 1.000000 0.000000
vn 0.000000 1.000000 0.000000
vn 0.000000 1.000000 0.000000
vn 0.000000 1.000000 0.000000
vn 0.000000 1.000000 0.000000
vn 0.000000 1.000000 0.000000
vn 0.000000 1.000000 0.000000
vn 0.000000 1.000000 0.000000
vn 0.000000 0.000000 1.000000
vn 0.000000 0.000000 1.000000
vn 0.000000 0.000000 1.000000
vn 0.000000 0.000000 1.000000
vn 0.000000 1.000000 0.000000
vn 0.000000 1.000000 0.000000
vn 0.000000 1.000000 0.000000
vn 0.000000 1.000000 0.000000
vn 0.000000 0.000000 -1.000000
vn 0.000000 0.000000 -1.000000
vn 0.000000 0.000000 -1.000000
vn 0.000000 0.000000 -1.000000
vn 0.000000 -1.000000 0.000000
vn 0.000000 -1.000000 0.000000
vn 0.000000 -1.000000 0.000000
vn 0.000000 -1.000000 0.000000
vn 1.000000 0.000000 -0.000001
vn 1.000000 0.000000 -0.000000
vn 1.000000 -0.000001 -0.000000
vn 1.000000 -0.000001 0.000000
vn 1.000000 -0.000003 0.000001
vn 1.000000 0.000000 0.000000
vn 1.000000 0.000000 -0.000000
vn 1.000000 -0.000000 -0.000000
vn -1.000000 0.000000 0.000000
vn -1.000000 0.000000 0.000000
vn -1.000000 0.000000 0.000000
vn -1.000000 -0.000000 0.000000
vn -1.000000 -0.000000 0.000000
vn -1.000000 0.000000 0.000001
vn -1.000000 -0.000000 0.000000
vn -1.000000 -0.000001 -0.000000
vn 0.000000 -1.000000 0.000000
vn 0.000000 -1.000000 0.000000
vn 0.000000 -1.000000 0.000000
vn 0.000000 -1.000000 0.000000
vn 0.000000 -1.000000 0.000000
vn 0.000000 -1.000000 0.000000
vn 0.000000 -1.000000 0.000000
vn 0.000000 -1.000000 0.000000
f 1/1/1 2/2/2 4/4/3
f 4/4/3 2/2/2 3/3/4
f 5/5/5 6/6/6 8/8/7
f 8/8/7 6/6/6 7/7/8
f 3/12/9 11/13/10 4/11/11
f 11/13/10 12/14/12 4/11/11
f 4/11/11 12/14/12 10/10/13
f 6/15/14 5/16/15 12/14/12
f 5/16/15 9/9/16 12/14/12
f 9/9/16 10/10/13 12/14/12
f 7/20/17 15/21/18 8/19/19
f 15/21/18 16/22/20 8/19/19
f 8/19/19 16/22/20 14/18/21
f 2/23/22 1/24/23 16/22/20
f 1/24/23 13/17/24 16/22/20
f 13/17/24 14/18/21 16/22/20
f 10/25/25 9/26/26 13/28/27
f 13/28/27 9/26/26 14/27/28
f 12/29/29 15/30/30 6/32/31
f 6/32/31 15/30/30 7/31/32
f 11/33/33 16/34/34 12/36/35
f 12/36/35 16/34/34 15/35/36
f 3/37/37 2/38/38 11/40/39
f 11/40/39 2/38/38 16/39/40
f 9/41/41 5/42/42 20/48/43
f 5/42/42 17/43/44 20/48/43
f 17/43/44 18/44/45 20/48/43
f 20/48/43 18/44/45 19/47/46
f 18/44/45 4/45/47 19/47/46
f 4/45/47 10/46/48 19/47/46
f 13/49/49 1/50/50 22/52/51
f 22/52/51 1/50/50 21/51/52
f 23/53/53 24/54/54 26/56/55
f 26/56/55 24/54/54 25/55/56
f 27/57/57 28/58/58 30/60/59
f 30/60/59 28/58/58 29/59/60
f 25/64/61 33/65/62 26/63/63
f 33/65/62 34/66/64 26/63/63
f 26/63/63 34/66/64 32/62/65
f 28/67/66 27/68/67 34/66/64
f 27/68/67 31/61/68 34/66/64
f 31/61/68 32/62/65 34/66/64
f 29/72/69 37/73/70 30/71/71
f 37/73/70 38/74/72 30/71/71
f 30/71/71 38/74/72 36/70/73
f 24/75/74 23/76/75 38/74/72
f 23/76/75 35/69/76 38/74/72
f 35/69/76 36/70/73 38/74/72
f 32/77/77 31/78/78 35/80/79
f 35/80/79 31/78/78 36/79/80
f 34/81/81 37/82/82 28/84/83
f 28/84/83 37/82/82 29/83/84
f 33/85/85 38/86/86 34/88/87
f 34/88/87 38/86/86 37/87/88
f 25/89/89 24/90/90 33/92/91
f 33/92/91 24/90/90 38/91/92
f 39/93/93 40/94/94 27/96/95
f 27/96/95 40/94/94 31/95/96
f 18/99/97 41/100/98 4/98/99
f 41/100/98 42/101/100 4/98/99
f 4/98/99 42/101/100 1/97/101
f 1/97/101 42/101/100 21/106/102
f 21/106/102 42/101/100 44/105/103
f 44/105/103 42/101/100 26/104/104
f 26/104/104 42/101/100 23/103/105
f 42/101/100 43/102/106 23/103/105
f 35/107/107 23/108/108 47/114/109
f 23/108/108 43/109/110 47/114/109
f 43/109/110 45/110/111 47/114/109
f 47/114/109 45/110/111 46/113/112
f 45/110/111 30/111/113 46/113/112
f 30/111/113 36/112/114 46/113/112
f 45/121/115 49/122/116 30/120/117
f 49/122/116 50/123/118 30/120/117
f 30/120/117 50/123/118 27/119/119
f 27/119/119 50/123/118 39/118/120
f 39/118/120 50/123/118 48/117/121
f 48/117/121 50/123/118 8/116/122
f 8/116/122 50/123/118 5/115/123
f 5/115/123 50/123/118 17/124/124
f 50/125/125 49/126/126 41/128/127
f 41/128/127 49/126/126 42/127/128
f 42/129/129 49/130/130 43/132/131
f 43/132/131 49/130/130 45/131/132
f 50/133/133 41/134/134 17/136/135
f 17/136/135 41/134/134 18/135/136
f 47/143/137 52/144/138 35/142/139
f 52/144/138 53/145/140 35/142/139
f 35/142/139 53/145/140 32/141/141
f 32/141/141 53/145/140 51/140/142
f 51/140/142 53/145/140 22/139/143
f 22/139/143 53/145/140 13/138/144
f 13/138/144 53/145/140 10/137/145
f 10/137/145 53/145/140 19/146/146
f 46/147/147 54/148/148 47/150/149
f 47/150/149 54/148/148 52/149/150
f 20/153/151 55/154/152 9/152/153
f 55/154/152 54/155/154 9/152/153
f 9/152/153 54/155/154 14/151/155
f 14/151/155 54/155/154 56/160/156
f 56/160/156 54/155/154 40/159/157
f 40/159/157 54/155/154 31/158/158
f 31/158/158 54/155/154 36/157/159
f 54/155/154 46/156/160 36/157/159
f 19/161/161 53/162/162 20/164/163
f 20/164/163 53/162/162 55/163/164
f 54/165/165 55/166/166 52/168/167
f 52/168/167 55/166/166 53/167/168
f 51/169/169 44/170/170 32/172/171
f 32/172/171 44/170/170 26/171/172
f 8/173/173 14/174/174 48/176/175
f 48/176/175 14/174/174 56/175/176
f 57/177/177 58/178/178 60/180/179
f 60/180/179 58/178/178 59/179/180
f 60/181/181 59/182/182 62/184/183
f 62/184/183 59/182/182 61/183/184
f 62/185/185 61/186/186 64/188/187
f 64/188/187 61/186/186 63/187/188
f 22/189/189 56/190/190 51/192/191
f 51/192/191 56/190/190 40/191/192
f 63/196/193 61/197/194 39/195/195
f 61/197/194 59/198/196 39/195/195
f 39/195/195 59/198/196 40/194/197
f 58/199/198 44/200/199 59/198/196
f 44/200/199 51/193/200 59/198/196
f 51/193/200 40/194/197 59/198/196
f 57/204/201 60/205/202 21/203/203
f 60/205/202 62/206/204 21/203/203
f 21/203/203 62/206/204 22/202/205
f 64/207/206 48/208/207 62/206/204
f 48/208/207 56/201/208 62/206/204
f 56/201/208 22/202/205 62/206/204
f 48/209/209 64/210/210 39/212/211
f 39/212/211 64/210/210 63/211/212
f 44/213/213 58/214/214 21/216/215
f 21/216/215 58/214/214 57/215/216
