# This file uses centimeters as units for non-parametric coordinates.

v -2.000000 0.000000 -8.000000
v -10.000000 0.000000 -8.000000
v -10.000000 4.000000 -8.000000
v -2.000000 4.000000 -8.000000
v -2.000000 0.000000 0.000000
v 2.000000 0.000000 0.000000
v 2.000000 0.000000 -8.000000
v 11.000000 0.000000 -8.000000
v 11.000000 0.000000 -12.000000
v -10.000000 0.000000 -12.000000
v 2.000000 4.000000 -8.000000
v 2.000000 4.000000 0.000000
v -2.000000 4.000000 0.000000
v 3.000000 -1.000000 -7.000000
v 3.000000 4.000000 -7.000000
v 3.000000 4.000000 1.000000
v 3.000000 -1.000000 1.000000
v -3.000000 4.000000 -7.000000
v -3.000000 -1.000000 -7.000000
v -3.000000 -1.000000 1.000000
v -3.000000 4.000000 1.000000
v -11.000000 -1.000000 -13.000000
v -11.000000 -1.000000 -7.000000
v -11.000000 4.000000 -7.000000
v -11.000000 4.000000 -13.000000
v -3.000000 -1.000000 -13.000000
v 3.000000 -1.000000 -13.000000
v 12.000000 -1.000000 -13.000000
v 12.000000 -1.000000 -7.000000
v 12.000000 4.000000 -7.000000
v 12.000000 4.000000 -13.000000
v 3.000000 4.000000 -13.000000
v -3.000000 4.000000 -13.000000
v -10.000000 4.000000 -12.000000
v 11.000000 4.000000 -12.000000
v 11.000000 4.000000 -8.000000
vt 0.818473 0.576390
vt 0.818473 0.773482
vt 0.719927 0.773482
vt 0.719927 0.576390
vt 0.284615 0.698237
vt 0.087523 0.698237
vt 0.087523 0.599691
vt 0.284615 0.599691
vt 0.284615 0.377963
vt 0.383161 0.377963
vt 0.383161 0.895329
vt 0.284615 0.895329
vt 0.925757 0.723109
vt 0.827211 0.723109
vt 0.827211 0.526017
vt 0.925757 0.526017
vt 0.255035 0.900456
vt 0.353581 0.900456
vt 0.353581 0.999002
vt 0.255035 0.999002
vt 0.716835 0.772048
vt 0.618289 0.772048
vt 0.618289 0.574956
vt 0.716835 0.574956
vt 0.386785 0.607809
vt 0.509967 0.607809
vt 0.509967 0.804901
vt 0.386785 0.804901
vt 0.124126 0.900893
vt 0.000944 0.900893
vt 0.000944 0.703801
vt 0.124126 0.703801
vt 0.514771 0.927073
vt 0.514771 0.779254
vt 0.637953 0.779254
vt 0.637953 0.927073
vt 0.276749 0.370545
vt 0.276749 0.567637
vt 0.128930 0.567637
vt 0.128930 0.370545
vt 0.128930 0.222726
vt 0.128930 0.000998
vt 0.276749 0.000998
vt 0.276749 0.222726
vt 0.473841 0.222726
vt 0.473841 0.370545
vt 0.252113 0.703801
vt 0.252113 0.900893
vt 0.128930 0.900893
vt 0.128930 0.703801
vt 0.479010 0.372792
vt 0.479010 0.224973
vt 0.676102 0.224973
vt 0.676102 0.003245
vt 0.823921 0.003245
vt 0.823921 0.224973
vt 0.823921 0.372792
vt 0.823921 0.569884
vt 0.676102 0.569884
vt 0.676102 0.372792
vt 0.503646 0.249610
vt 0.503646 0.348156
vt 0.700738 0.348156
vt 0.700738 0.545248
vt 0.799284 0.545248
vt 0.799284 0.027881
vt 0.700738 0.027881
vt 0.700738 0.249610
vt 0.124126 0.372581
vt 0.124126 0.569673
vt 0.000944 0.569673
vt 0.000944 0.372581
vt 0.000944 0.224762
vt 0.124126 0.224762
vt 0.000944 0.003034
vt 0.124126 0.003034
vt 0.821564 0.876252
vt 0.821564 0.728433
vt 0.944747 0.728433
vt 0.944747 0.876252
vt 0.386785 0.598890
vt 0.386785 0.377162
vt 0.509967 0.377162
vt 0.509967 0.598890
vt 0.640875 0.927075
vt 0.640875 0.779257
vt 0.764058 0.779257
vt 0.764058 0.927075
vt 0.386785 0.910990
vt 0.386785 0.812444
vt 0.485331 0.812444
vt 0.485331 0.910990
vt 0.613316 0.599468
vt 0.514771 0.599468
vt 0.514771 0.377739
vt 0.613316 0.377739
vt 0.765099 0.980627
vt 0.765099 0.882081
vt 0.863645 0.882081
vt 0.863645 0.980627
vt 0.925757 0.519991
vt 0.827211 0.519991
vt 0.827211 0.002625
vt 0.925757 0.002625
vn 0.000000 0.000000 -1.000000
vn 0.000000 0.000000 -1.000000
vn 0.000000 0.000000 -1.000000
vn 0.000000 0.000000 -1.000000
vn 0.000000 1.000000 0.000000
vn 0.000000 1.000000 0.000000
vn 0.000000 1.000000 0.000000
vn 0.000000 1.000000 0.000000
vn 0.000000 1.000000 0.000000
vn 0.000000 1.000000 0.000000
vn 0.000000 1.000000 0.000000
vn 0.000000 1.000000 0.000000
vn -1.000000 0.000000 0.000000
vn -1.000000 0.000000 0.000000
vn -1.000000 0.000000 0.000000
vn -1.000000 0.000000 0.000000
vn 0.000000 0.000000 -1.000000
vn 0.000000 0.000000 -1.000000
vn 0.000000 0.000000 -1.000000
vn 0.000000 0.000000 -1.000000
vn 1.000000 0.000000 -0.000000
vn 1.000000 0.000000 -0.000000
vn 1.000000 0.000000 -0.000000
vn 1.000000 0.000000 -0.000000
vn 1.000000 0.000000 0.000000
vn 1.000000 0.000000 0.000000
vn 1.000000 0.000000 0.000000
vn 1.000000 0.000000 0.000000
vn -1.000000 0.000000 0.000000
vn -1.000000 0.000000 0.000000
vn -1.000000 0.000000 0.000000
vn -1.000000 0.000000 0.000000
vn -1.000000 0.000000 0.000000
vn -1.000000 0.000000 0.000000
vn -1.000000 0.000000 0.000000
vn -1.000000 0.000000 0.000000
vn 0.000000 -1.000000 0.000000
vn 0.000000 -1.000000 0.000000
vn 0.000000 -1.000000 0.000000
vn 0.000000 -1.000000 0.000000
vn 0.000000 -1.000000 0.000000
vn 0.000000 -1.000000 0.000000
vn 0.000000 -1.000000 0.000000
vn 0.000000 -1.000000 0.000000
vn 0.000000 -1.000000 0.000000
vn 0.000000 -1.000000 0.000000
vn 0.000000 0.000000 1.000000
vn 0.000000 0.000000 1.000000
vn 0.000000 0.000000 1.000000
vn 0.000000 0.000000 1.000000
vn 0.000000 1.000000 0.000000
vn 0.000000 1.000000 0.000000
vn 0.000000 1.000000 0.000000
vn 0.000000 1.000000 0.000000
vn -0.000000 1.000000 0.000000
vn 0.000000 1.000000 0.000000
vn -0.000000 1.000000 0.000000
vn -0.000000 1.000000 0.000000
vn -0.000000 1.000000 0.000000
vn -0.000000 1.000000 0.000000
vn -0.000000 1.000000 0.000000
vn -0.000000 1.000000 0.000000
vn -0.000000 1.000000 0.000000
vn 0.000000 1.000000 0.000000
vn -0.000000 1.000000 0.000000
vn 0.000000 1.000000 0.000000
vn 0.000000 1.000000 0.000000
vn 0.000000 1.000000 0.000000
vn 0.000000 0.000000 -1.000000
vn 0.000000 0.000000 -1.000000
vn 0.000000 0.000000 -1.000000
vn 0.000000 0.000000 -1.000000
vn 1.000000 0.000000 0.000000
vn 1.000000 0.000000 0.000000
vn 1.000000 0.000000 0.000000
vn 1.000000 0.000000 0.000000
vn 0.000000 0.000000 -1.000000
vn 0.000000 0.000000 -1.000000
vn 0.000000 0.000000 -1.000000
vn 0.000000 0.000000 -1.000000
vn 0.000000 0.000000 1.000000
vn 0.000000 0.000000 1.000000
vn 0.000000 0.000000 1.000000
vn 0.000000 0.000000 1.000000
vn 0.000000 0.000000 -1.000000
vn 0.000000 0.000000 -1.000000
vn 0.000000 0.000000 -1.000000
vn 0.000000 0.000000 -1.000000
vn 0.000000 0.000000 1.000000
vn 0.000000 0.000000 1.000000
vn 0.000000 0.000000 1.000000
vn 0.000000 0.000000 1.000000
vn 1.000000 0.000000 0.000000
vn 1.000000 0.000000 0.000000
vn 1.000000 0.000000 0.000000
vn 1.000000 0.000000 0.000000
vn 0.000000 0.000000 -1.000000
vn 0.000000 0.000000 -1.000000
vn 0.000000 0.000000 -1.000000
vn 0.000000 0.000000 -1.000000
vn -1.000000 0.000000 0.000000
vn -1.000000 0.000000 0.000000
vn -1.000000 0.000000 0.000000
vn -1.000000 0.000000 0.000000
vn 0.000000 0.000000 1.000000
vn 0.000000 0.000000 1.000000
vn 0.000000 0.000000 1.000000
vn 0.000000 0.000000 1.000000
f 1/1/1 2/2/2 4/4/3
f 4/4/3 2/2/2 3/3/4
f 5/6/5 6/7/6 1/5/7
f 6/7/6 7/8/8 1/5/7
f 8/9/9 9/10/10 7/8/8
f 9/10/10 10/11/11 7/8/8
f 7/8/8 10/11/11 1/5/7
f 1/5/7 10/11/11 2/12/12
f 11/13/13 7/14/14 12/16/15
f 12/16/15 7/14/14 6/15/16
f 12/17/17 6/18/18 13/20/19
f 13/20/19 6/18/18 5/19/20
f 13/21/21 5/22/22 4/24/23
f 4/24/23 5/22/22 1/23/24
f 14/25/25 15/26/26 17/28/27
f 17/28/27 15/26/26 16/27/28
f 18/29/29 19/30/30 21/32/31
f 21/32/31 19/30/30 20/31/32
f 22/33/33 23/34/34 25/36/35
f 25/36/35 23/34/34 24/35/36
f 23/38/37 22/39/38 19/37/39
f 22/39/38 26/40/40 19/37/39
f 26/40/40 27/41/41 19/37/39
f 28/42/42 29/43/43 27/41/41
f 29/43/43 14/44/44 27/41/41
f 27/41/41 14/44/44 19/37/39
f 19/37/39 14/44/44 20/46/45
f 14/44/44 17/45/46 20/46/45
f 18/47/47 24/48/48 19/50/49
f 19/50/49 24/48/48 23/49/50
f 21/51/51 13/62/52 18/60/53
f 13/62/52 4/63/54 18/60/53
f 4/63/54 3/64/55 18/60/53
f 18/60/53 3/64/55 24/59/56
f 21/51/51 16/52/57 13/62/52
f 13/62/52 16/52/57 12/61/58
f 16/52/57 15/53/59 12/61/58
f 12/61/58 15/53/59 11/68/60
f 11/68/60 15/53/59 36/67/61
f 15/53/59 30/54/62 36/67/61
f 30/54/62 31/55/63 36/67/61
f 36/67/61 31/55/63 35/66/64
f 31/55/63 32/56/65 35/66/64
f 35/66/64 32/56/65 34/65/66
f 32/56/65 33/57/67 34/65/66
f 33/57/67 25/58/68 34/65/66
f 25/58/68 24/59/56 34/65/66
f 3/64/55 34/65/66 24/59/56
f 26/69/69 22/70/70 33/72/71
f 33/72/71 22/70/70 25/71/72
f 29/77/73 28/78/74 30/80/75
f 30/80/75 28/78/74 31/79/76
f 32/73/77 31/75/78 27/74/79
f 27/74/79 31/75/78 28/76/80
f 14/81/81 29/82/82 15/84/83
f 15/84/83 29/82/82 30/83/84
f 33/72/85 32/73/86 26/69/87
f 26/69/87 32/73/86 27/74/88
f 20/85/89 17/86/90 21/88/91
f 21/88/91 17/86/90 16/87/92
f 3/89/93 2/90/94 34/92/95
f 34/92/95 2/90/94 10/91/96
f 7/93/97 11/94/98 8/96/99
f 8/96/99 11/94/98 36/95/100
f 35/97/101 9/98/102 36/100/103
f 36/100/103 9/98/102 8/99/104
f 34/101/105 10/102/106 35/104/107
f 35/104/107 10/102/106 9/103/108
